<svg width="15" height="17" viewBox="0 0 15 17" fill="none" xmlns="http://www.w3.org/2000/svg">
<path fill-rule="evenodd" clip-rule="evenodd" d="M11.0742 10.9283L14.7719 14.8199C15.0848 15.1492 15.0744 15.6741 14.7493 15.9907C14.5963 16.1397 14.3947 16.2216 14.1823 16.2216C13.9578 16.2216 13.7484 16.1314 13.5926 15.9677L9.86678 12.0466C8.80883 12.7989 7.57143 13.1952 6.27293 13.1952C2.81409 13.1952 0 10.3476 0 6.84761C0 3.34759 2.81409 0.5 6.27293 0.5C9.73177 0.5 12.5459 3.34759 12.5459 6.84761C12.5459 8.34564 12.0249 9.78462 11.0742 10.9283ZM10.9094 6.84761C10.9094 4.26054 8.82956 2.1559 6.27293 2.1559C3.7163 2.1559 1.63642 4.26054 1.63642 6.84761C1.63642 9.43467 3.7163 11.5393 6.27293 11.5393C8.82956 11.5393 10.9094 9.43467 10.9094 6.84761Z" fill="white"/>
</svg>
