<svg xmlns="http://www.w3.org/2000/svg" width="106" height="64" fill="none" viewBox="0 0 106 64">
    <path fill="#E62A3C" fill-rule="evenodd" d="M40.393 13.519l1.01 2.219c.031.143.06.287.227.338.135.053.164.182.213.296.038.05.046.114.074.165.044.029-.018.053.017.01l-.011-.03a.136.136 0 0 0-.014-.03c-.019-.061-.05-.114-.082-.168-.029-.139-.133-.251-.14-.397-.008-.088.02-.18-.037-.26-.193-.724-.388-1.446-.578-2.17-.027-.105-.134-.246.042-.31.143-.051.165.11.226.187.425.532.748 1.14 1.203 1.65.144.054.22.178.303.294.06.101.13.197.186.298.094.063.037-.054.07-.064.12-.204-.02-.34-.144-.455a1.52 1.52 0 0 1-.314-.413l-.084-.184c-.143-.199-.116-.486-.336-.645-.017-.014-.023-.031-.015-.052-.02-.108-.001-.236-.146-.279-.108-.19-.202-.391-.327-.57-.194-.278-.183-.523.061-.758.12-.134.336-.137.429-.31a.052.052 0 0 1 .056-.027c.143.012.293-.202.43.011.39.595.634 1.26.908 1.91a.4.4 0 0 1 .175.36c0 .039.003.078 0 .117.006-.015.005-.038.004-.07-.002-.107.003-.215-.042-.317a.137.137 0 0 1 .035-.101c-.012-.73-.237-1.415-.454-2.099-.06-.188-.072-.317.138-.387.36-.12.683-.339 1.063-.409.65-.201 1.345-.177 1.994-.386.264-.085.514-.028.783.102-.096-.124-.244-.106-.315-.208-.017-.053-.03-.11.013-.154.135-.143.27-.287.497-.266.071.006.131-.032.169-.096a10.75 10.75 0 0 1 2.24-.483c1.08-.104 2.166-.07 3.248-.123.85-.042 1.704.098 2.548-.075.027-.006.057.003.083-.003.223-.052.318.284.612.156.23-.1.537-.005.807.043.708.066.738.106.336.675-1.228 1.74-2.49 3.472-4.048 4.918-1.797 1.668-3.736 3.19-5.912 4.362a6.067 6.067 0 0 1-1.733.614c-.08.004-.177-.125-.235.033-.524.196-1.08.248-1.624.337-.934.153-1.81.481-2.681.825-.334.027-.67.044-.92.315a.09.09 0 0 1-.068.017c-.39.109-.796.162-1.175.314-.125.097-.267.103-.416.082-.39-.009-.764-.149-1.158-.149-.26 0 .045.061-.012.076.11-.003-.158.138.04.104.141-.025.296-.085.37.114-2.265.237-4.482-.025-6.682-.589-2.493-.638-4.847-1.618-7.144-2.756-.024-.012-.044-.033-.112-.087 1.12-.784 2.292-1.453 3.434-2.169.115-.052.273-.025.331-.18.716-.446 1.427-.898 2.149-1.334.43-.26.823-.59 1.323-.722.326-.06.667-.08.919-.34.98-.388 2.006-.609 3.036-.807.806-.155 1.62-.267 2.439-.34.244-.023.353.05.431.3.194.614.484 1.19.795 1.755a.22.22 0 0 0 .155.119c.095.027.138.106.18.185l.163.325c.032.06.066.12.1.175l.04.049c.022-.037-.017-.057-.025-.088a.767.767 0 0 1-.038-.098c-.12-.295.082-.71-.34-.889a4.732 4.732 0 0 1-.397-1.409c.002-.231.218-.187.34-.263.36.135.755.18 1.07.428.048.114.2.122.244.24z" clip-rule="evenodd"/>
    <mask id="a" width="35" height="17" x="23" y="0" maskUnits="userSpaceOnUse">
        <path fill="#fff" fill-rule="evenodd" d="M23.42 0h33.634v16.882H23.42V0z" clip-rule="evenodd"/>
    </mask>
    <g mask="url(#a)">
        <path fill="#E62A3C" fill-rule="evenodd" d="M44.19 6.636c-.117.386.014.781-.05 1.173-.04.255-.069.508-.187.742-.203.234-.607.27-.656.658l-.771.83c-.423.123-.753.213-.803.824l-.005.003c-.112.108-.309.134-.322.336-.2.014-.297.209-.47.269-.258-.368-.228-.45.18-.524-.434.08-.853.304-1.312.163a.575.575 0 0 1-.113-.049 1.884 1.884 0 0 0-1.228.011c-.483.355-1.023.105-1.535.145-.188-.064-.256-.26-.406-.367-.095-.18.058-.242.157-.331.206-.011.423-.012.37-.275 0 .215-.13.234-.32.126-.123-.07-.164-.22-.26-.312-.084-.084-.195-.285-.332-.037-.089.085-.19.067-.292.035h.002c-.08-.247-.367-.336-.444-.584.17-.353-.254-.239-.32-.406a.504.504 0 0 1-.07-.157c-.007-.025-.012-.052-.024-.075-.014-.027-.07-.07-.063-.03.036.234-.06.523.242.66.192.111.212.317.275.5.119.517.531.874.802 1.423-.24-.115-.382-.06-.505.053-.272.251-.534.237-.844.036-.336-.218-.67-.433-.925-.742-.1-.122-.231-.182-.346-.273-.059-.043-.09-.106-.122-.167-.024-.026-.037-.063-.067-.087.01.036.037.062.056.094.06.074-.01.172.046.247.167.584.623.951 1.036 1.34.173.164.102.188-.042.275-1.093.667-2.302.959-3.555 1.117-.084.017-.202-.075-.247.075-1.45.464-2.706 1.265-3.866 2.233-.082.069-.185.113-.278.168-.328-.033-.576.056-.646.42a26.99 26.99 0 0 1-.102.076c-.405.113-.805-.044-1.208-.026-.052-.019-.103-.003-.154.004-.006.001-.006.016-.005.016a.385.385 0 0 1 .117-.023c.09.034.188.024.279.053.118.103.488.058.228.385l-.003.002c-.128.074-.303.025-.41.154a.102.102 0 0 1-.075.017c-.148.01-.367.175-.344-.171.009-.133-.094-.045-.137-.044-.141.004-.247.13-.381.143-.14.014-.31.027-.315-.198.56-.81 1.12-1.622 1.562-2.505.305-.61.57-1.241.852-1.863.275-.401.35-.876.49-1.327.014-.209.087-.399.186-.58.143-.173.144-.461.425-.522.122.036.132.154.18.245.043.08.079.183.202.091.041-.355.236-.676.225-1.04a.908.908 0 0 1 .032-.239c-.094.162-.108.415-.339.412-.21-.002-.142-.22-.17-.355.217-.7.595-1.316.99-1.924a.213.213 0 0 1 .07.032c.03-.051-.03-.06-.043-.089.906-1.487 1.944-2.858 3.416-3.84 1.365-.91 2.798-1.15 4.372-.523.932.372 1.915.606 2.908.122.35-.17.63-.434.942-.656.178-.08.543-.004.342-.405.583-.84 1.462-1.207 2.394-1.46 1.05-.284 2.058-.118 3.014.385.302.158.599.323.898.485.07.12.181.17.314.18 1.426.594 2.745 1.387 4.072 2.168 1.004.592 1.942 1.278 2.874 1.973.097.072.182.16.273.24.532.22.977.604 1.534.789.502.166 1.002.319 1.527.387.052.034.124.056.077.142-.39.241-.834.32-1.273.42-1.553.351-3.143.277-4.715.412-1.184.101-2.31.445-3.412.867-.61.233-1.245.323-1.887.39-.237.026-.311-.011-.232-.284.138-.471.287-.947.274-1.45.075-.13-.004-.265.009-.397a.853.853 0 0 1 .094-.258c.054-.084.051-.18.06-.27-.019.012-.005.027-.01.04a.9.9 0 0 1-.007.093c-.035.119-.121.213-.15.334-.011.073-.023.147-.08.202-.312.55-.395 1.203-.765 1.727-.225-.028-.145-.285-.284-.377a1.487 1.487 0 0 1-.106-.116l-.094-1.24c.02-.192.019-.378-.11-.538-.02-.025-.022-.07-.068-.066.02.108.015.203-.092.26z" clip-rule="evenodd"/>
    </g>
    <path fill="#E62A3C" fill-rule="evenodd" d="M63.583 50.12c.855.084 1.724.018 2.566.235-.072.277-.306.183-.476.188-.317.01-.59.017-.849.292-.304.323-.717.524-1.196.303-.054-.039-.09-.088-.086-.158.01-.093.116-.134.16-.266-.283.192-.527.164-.792.059-.136-.055-.373-.23-.413.122.135.178.325.07.488.093.208.028.437-.054.613.127.059.214-.106.224-.236.246-.177.03-.358.02-.537.015a1.15 1.15 0 0 0-.976.44 1.012 1.012 0 0 1-.087.097c-.77.114-1.54.216-2.306.345-.724.122-1.444.273-2.165.41-.23-.06-.594.196-.654-.287-.005-.04-.224-.033-.39.032.257.088.47.18.64.345-.116.118-.275.065-.41.106-.167-.057-.348.005-.51-.063-.048-.018.02.022-.025-.01-.028-.02-.03-.026-.008-.006.087.069.22.03.285.136-1.051.289-2.106.563-3.152.87-1.363.401-2.717.83-4.076 1.243-.09.028-.188.033-.283.049-.156.04-.317-.144-.47.01-.072.066.01.1.034.145-.086.112-.21.08-.323.087-.341.013-.726.139-.882-.336-.03-.02-.058-.041-.087-.062-.056-.03-.111-.077-.162.006-.01.067.012.131.014.197-.004.056-.022.104-.071.137-.102.032-.167-.018-.215-.097-.022-.019-.046-.063-.06.01.033.243.412.213.387.498-1.31.43-2.617.873-3.933 1.286-1.36.427-2.721.845-4.093 1.229-2.4.671-4.805 1.328-7.28 1.69-.803.118-1.602.252-2.417.254-.72.005-1.441-.088-2.158.05-1.23-.069-2.44-.235-3.555-.811.002-.051.128-.024.075-.078-.1-.103-.098-.335-.329-.286-.093.02-.162.091-.251.12-.152-.03-.297-.073-.41-.187-.094-.416.246-.283.384-.35-.257.045-.569-.066-.874.035-.772-.505-1.446-1.09-1.676-2.04.083-.504-.098-1.025.09-1.523.362-.727.36-.71 1.155-.608.667.084 1.34.135 2.01.177 2.501.157 5.007.183 7.509.092a47.23 47.23 0 0 0 6.222-.633c.08-.014.164-.005.246-.007.52-.005 1.006-.243 1.529-.226.212.052.457.303.596-.097a.148.148 0 0 1 .026-.102c1.038-.341 2.107-.564 3.168-.813 1.692-.398 3.394-.753 5.095-1.112a70.636 70.636 0 0 1 4.533-.802c1.684-.242 3.368-.473 5.067-.612 1.11-.09 2.222-.134 3.332-.203.526.145 1.062.05 1.593.06.35.005.712.08 1.056-.061z" clip-rule="evenodd"/>
    <path fill="#101113" fill-rule="evenodd" d="M102.561 61.699c-.14-1.04-.06-2.078.027-3.113a1.71 1.71 0 0 1 .396-.97c.62-.722 1.659-.779 2.407-.137-.015.11.045.154.145.162.258.217.298.547.41.834.083.212.037.416-.281.386-.15-.014-.302-.01-.454-.015-.183-.006-.298-.057-.317-.283-.028-.348-.202-.587-.595-.607-.415-.02-.601.216-.669.579-.188.993-.171 1.996-.096 2.997.035.457.006.944.371 1.314.163.144.452.104.535.365.015.207-.164.249-.288.338-.46-.203-1.034-.213-1.286-.77a3.847 3.847 0 0 1-.305-1.08zM70.719 58.215c-.258-.196-.554-.083-.831-.09-.24-.005-.306-.097-.315-.316-.025-.64-.03-.642.61-.642.77 0 1.542.005 2.313-.003.233-.002.42.069.342.319-.07.22.192.627-.332.637-.811.016-.811.028-.811.86 0 1.487-.01 2.975.008 4.462.004.313-.083.397-.39.388-.609-.017-.61.001-.609-.612l.014-4.833c.292.034.23.264.23.441.007 1.031.003 2.063.004 3.094v-3.184c0-.21.009-.42-.233-.521zM98.003 60.535c.022.017.032.04.028.068.108.132.027.251-.021.375-.02.053-.013.056.13.027a.296.296 0 0 1 .105-.018c.105.014.198.078.307.073.215-.138.394-.009.579.078.16.097.121.258.136.404.055.557-.118 1.117.024 1.673.017.07-.434.58-.511.578-.24-.008-.374-.138-.41-.376-.019-.128-.112-.216-.187-.313l-1.167-2.886a.677.677 0 0 0-.09-.182c-.039-.028-.08-.09-.119-.003-.07.155-.068.32-.068.487.001.992.002 1.983-.004 2.975-.001.157-.036.277-.208.3-.184.025-.235-.105-.263-.25a1.505 1.505 0 0 1-.021-.289c-.002-1.848-.003-3.696 0-5.545 0-.11.004-.22.034-.328.051-.183.16-.248.34-.161.223.08.207.308.275.473.203.49.378.991.563 1.488.029.197.162.388.035.593.349.133.203.6.513.759zM90.823 57.222c.292-.01.194.214.194.352.006 1.625.015 3.25-.006 4.874-.005.377.09.518.479.48.355-.034.715-.002 1.073-.008.175-.004.231.064.243.241.047.662.054.661-.617.661-.606 0-1.212-.009-1.817.003-.225.005-.314-.05-.313-.296.008-2.023.003-4.047.004-6.07 0-.088-.04-.201.097-.237.478-.07.494-.06.495.417.003 1.416 0 2.833.001 4.25 0-1.41-.004-2.82.006-4.229 0-.152-.108-.373.16-.438z" clip-rule="evenodd"/>
    <path fill="#E72A3F" fill-rule="evenodd" d="M6.457 29.424c.226-.025.453-.052.673.034.11.306-.036.512-.302.648.118.142.202.035.285.036.287-.102.47.199.735.188.112.053.182.123.106.254-.548.281-.747.747-.742 1.342.01 1.252-.008 2.504.011 3.755.005.3-.089.362-.369.36-.9-.007-.9.004-.9-.896 0-1.788-.004-3.576.007-5.364 0-.117-.15-.364.166-.357.175.198.129.442.13.67.004 1.817 0 3.634.028 5.454.05-.134.04-.276.04-.415.001-1.693-.001-3.386.003-5.08 0-.216-.038-.445.13-.63z" clip-rule="evenodd"/>
    <path fill="#101113" fill-rule="evenodd" d="M100.756 57.222c.164-.112.347-.042.52-.05.175-.009.227.097.227.265-.007 2.054-.011 4.107-.01 6.161 0 .172-.043.232-.23.243-.765.044-.765.053-.765-.707 0-1.847-.001-3.694.002-5.541 0-.172-.086-.423.254-.37.252.491.143 1.028.155 1.54.036 1.445.012 2.892.013 4.338.001-1.378.008-2.757-.005-4.135-.004-.376.148-.725.132-1.103-.012-.266-.063-.488-.293-.641zM96.618 57.222c-.205-.014-.252.098-.252.282.004 1.994.002 3.989.004 5.984 0 .117-.026.284.17.25.152-.028.136-.156.135-.294-.01-1.28-.007-2.561-.007-3.842l.129-.022.224.474c-.12-.006-.222.01-.223.164-.003 1.074-.031 2.149.002 3.222.014.462-.25.387-.519.385-.26-.002-.5.057-.495-.378.025-1.873.01-3.747.01-5.62 0-.67.13-.765.822-.605zM86.504 63.52c-.584-.317-.77-.883-.797-1.47a42.185 42.185 0 0 1-.005-3.165c.013-.412.076-.845.4-1.169.17-.018.371-.108.442.15.06.221-.085.346-.263.4-.19.06-.237.17-.206.34.044.245-.11.488.04.837.073-.289.035-.496.053-.696.012-.145-.025-.34.161-.383.17-.04.272.096.33.25-.074.74.022 1.483-.026 2.222-.03.453.09.922-.122 1.36-.176.015-.133-.13-.161-.218.006.157-.021.327.122.45a.439.439 0 0 1 .074.083c.076.151-.073.368.139.48.044.072.014.138-.018.203-.08.102.023.24-.064.342a.1.1 0 0 1-.099-.016zM94.635 60.512c0 .98-.01 1.96.005 2.938.005.278-.057.419-.36.375a1.128 1.128 0 0 0-.33 0c-.27.041-.32-.088-.318-.329.007-2 .008-4 0-6-.002-.258.093-.329.336-.335.667-.018.667-.027.667.62v2.731z" clip-rule="evenodd"/>
    <path fill="#E52C3B" fill-rule="evenodd" d="M61.762 51.843c.102-.43.462-.513.815-.572.224-.038.46-.005.692-.008.13-.002.286.036.314-.165.573.062 1.054-.075 1.373-.603.06-.1.205-.046.312-.06.292-.04.6.092.881-.08.8-.01 1.56.206 2.323.409-.52.33-1.125.216-1.725.303.307.13.756-.374.876.26-.064.202-.238.213-.402.218-.369.01-.732.007-1.1-.09-.576-.152-1.172-.037-1.76-.04.492.083.99.03 1.484.066.158.012.419-.059.387.262l-2.648.005c-.071-.046-.101-.13-.172-.178a.543.543 0 0 0-.524.057.545.545 0 0 1-.106.043c-.183.043-.389 0-.543.149-.155.093-.315.086-.477.024z" clip-rule="evenodd"/>
    <path fill="#101113" fill-rule="evenodd" d="M74.73 58.05l.373 1.404c.054.135.198.024.275.1.016.022.025.054.046.068.497.34.428.803.285 1.285-.067.852-.04 1.705-.093 2.556-.009.142.026.304-.159.32-.217.02-.219-.174-.224-.319-.019-.55-.003-1.102-.01-1.653-.002-.177.03-.36-.058-.527-.1-.173-.086-.368-.103-.577-.107.163-.079.364-.203.502-.058.032-.114.036-.165-.013l-.522-1.719c-.075-.197.022-.391.08-.551.173-.471-.097-.92-.01-1.38.026-.14-.032-.305.187-.324.124.14.174.306.17.491.033.116-.015.264.131.336zM66.153 57.222c.293-.06.328.094.327.342-.009 1.524-.001 3.048-.006 4.571 0 .21.021.408.101.6.127.385-.156.645-.665.61l-.004-.003c-.02-.186.11-.378-.175-.535-.179-.097.055-.29.174-.41.075-.145.044-.3.044-.448.003-1.376 0-2.752.003-4.129 0-.19-.03-.387.07-.566.034-.05.078-.06.131-.032zM53.978 62.857c-.055.132.002.166.129.163.268-.006.536-.002.81-.002.007.21-.186.124-.228.264.088.105.297.076.368.233.08.12.256.044.334.167-.743.255-1.51.1-2.267.136-.168.008-.138-.14-.137-.241.002-.849.007-1.697.012-2.546.105.006.151.066.153.166.148.213.056.455.082.683.025.214-.063.443.083.64.2-.026.164-.18.165-.31.003-.338.001-.676.001-1.013.055-.048.115-.048.178-.016.098.112.1.253.092.387-.022.427.01.842.216 1.227l.009.062zM98.183 63.105c.146.095.309.162.283.397-.016.15.14.198.257.22.156.028.113-.113.132-.196.003-.014 0-.03.005-.041.228-.484.324-.945.324-1.558 0-.165-.003-.33 0-.494.001-.12-.021-.22-.166-.236a.281.281 0 0 1-.062-.29c.16-.227.121-.457.012-.688.016-.188-.133-.302-.202-.452-.058-.385-.015-.772-.03-1.157-.001-.296.008-.593.003-.89-.002-.153-.011-.302-.198-.351-.06-.026-.11-.059-.101-.135.05-.02.1-.052.153-.058.705-.092.753-.05.753.654 0 1.861.002 3.722-.004 5.583 0 .156.092.426-.198.397-.264-.026-.622.222-.784-.205-.063-.165-.118-.333-.177-.5zM68.714 57.223c.169.065.093.212.093.32.004 1.599 0 3.196 0 4.794 0 .223-.011.439-.164.619a.805.805 0 0 1-.334-.332.53.53 0 0 1-.033-.145c-.017-1.61-.005-3.219-.006-4.828 0-.136-.007-.276.07-.4.118-.105.245-.081.374-.028zM87.92 57.139c.765.089 1.132.973 1.164 1.495.009.156-.078.187-.203.186-.18-.002-.358-.01-.537-.005-.157.003-.234-.033-.267-.219-.05-.275-.111-.574-.477-.634-.386-.063-.657.081-.828.428-.117-.054-.242-.153-.176-.271.234-.416-.134-.403-.337-.512a.218.218 0 0 1-.062-.05c.203-.211.415-.406.731-.42.145-.193.206.243.407.042.122-.122.381-.13.585-.04zM86.504 63.52a31.1 31.1 0 0 1 .096-.008c.172-.202.474-.141.656-.324a.125.125 0 0 1 .108-.044c-.101-.03-.121.091-.199.108-.192.005-.395.099-.566-.07l.083-.165c-.222-.217-.144-.381.092-.517.183.277.405.483.773.407.366-.076.514-.346.535-.678.019-.284.21-.198.352-.201.734-.017.792.076.5.771-.046.112-.076.232-.177.312-.171-.005-.35-.056-.506.092.156-.076.304-.18.45-.009-.511.688-1.468.83-2.197.325z" clip-rule="evenodd"/>
    <path fill="#E72A3D" fill-rule="evenodd" d="M9.84 36.033c-.734 0-.734 0-.734-.718.001-.77.001-.77.77-.77.722 0 .722 0 .722.74 0 .748 0 .748-.758.748z" clip-rule="evenodd"/>
    <path fill="#E72B37" fill-rule="evenodd" d="M6.457 29.424v6.033c0 .124-.002.248-.016.37-.008.08-.073.11-.149.11s-.14-.03-.15-.11a3.417 3.417 0 0 1-.015-.37v-6.033h.33z" clip-rule="evenodd"/>
    <path fill="#101113" fill-rule="evenodd" d="M57.705 57.222c.75-.126 1.508-.06 2.258-.037.371.012.174.392.215.608.035.185-.02.328-.254.326-.414-.004-.828.007-1.241-.005-.202-.005-.316.054-.308.27-.146-.074-.12.322-.314.114-.14-.364.041-.762-.118-1.124-.048-.033-.103-.05-.154-.075a.237.237 0 0 1-.084-.077z" clip-rule="evenodd"/>
    <path fill="#E52C3B" fill-rule="evenodd" d="M71.626 52.431c-.101.536-.462.714-1.037.502-.663-.244-1.262-.635-1.951-.825-.576-.159-1.17-.21-1.749-.342a1.686 1.686 0 0 1 1.288-.123c.573-.008 1.149.06 1.713-.094.073.015.108.064.12.133-.068.183-.105.352.18.36.036.02.067.044.094.074.091.157.232.2.407.201.28.003.563-.034.84.035.04.016.072.043.095.08z" clip-rule="evenodd"/>
    <path fill="#E62D42" fill-rule="evenodd" d="M57.218 9.375c-.314.063-.659-.114-.953.12-.01.007-.03.017-.034.014-.54-.54-1.18-.017-1.786-.151-.52-.116-1.135.021-1.709.022-.939.001-1.878-.001-2.817-.002.498-.159 1.02-.198 1.53-.224 1.496-.076 2.994-.2 4.491-.018.43.052.866.086 1.278.24z" clip-rule="evenodd"/>
    <path fill="#101113" fill-rule="evenodd" d="M66.153 57.222l-.087.016c-.12.143-.08.315-.08.476-.003 1.43 0 2.86-.004 4.29 0 .174.046.36-.08.517-.09.046-.18.108-.147.22.043.146.115.027.183.006.134-.043.113.07.128.144.036.182-.067.315-.16.451-.328-.325-.43-.724-.428-1.176.008-1.51 0-3.022.007-4.533 0-.135-.09-.303.083-.409.122.142.083.314.083.475.003 1.389.002 2.777.002 4.166 0-1.39.002-2.778-.001-4.166 0-.162.038-.333-.078-.477a.664.664 0 0 1 .579 0zM57.705 57.222l.082.015c.218.42.137.86.058 1.287-.045.244-.092.483-.092.732 0 .854.014 1.708-.005 2.561-.01.486.228.939.159 1.429-.023.161.015.332-.07.484-.113.11-.236.09-.363.031-.01-.699-.026-1.398-.028-2.097-.005-1.373 0-2.747-.003-4.12 0-.188-.022-.374.262-.322z" clip-rule="evenodd"/>
    <path fill="#E62A3C" fill-rule="evenodd" d="M68.137 51.76c-.417-.206-.832.055-1.248.006l-.657-.023c-.044-.2-.206-.145-.332-.146a67.816 67.816 0 0 0-1.523 0c-.172.002-.325-.03-.31-.227.014-.195.194-.099.294-.101.521-.011 1.059-.083 1.56.018.442.09.873.146 1.318.141.131-.001.29.038.319-.165a.155.155 0 0 1 .128-.028c.294.094.588.098.891.028.353-.08.39-.034.326.348-.233.162-.537-.038-.766.15z" clip-rule="evenodd"/>
    <path fill="#101113" fill-rule="evenodd" d="M74.693 61.196l.15.001c.158.154.105.355.115.54.031.58-.059 1.163.05 1.735.112-.542.022-1.085.052-1.624.01-.202-.035-.41.065-.603l.05-.048c.228.04.161.222.162.359.006.644.001 1.288.005 1.932 0 .086-.041.23.095.229.16-.002.113-.138.109-.25-.037-.898.02-1.792.125-2.684.045-.045.07-.131.162-.083-.14.454-.103.922-.107 1.387l-.01 1.552c0 .144-.076.19-.207.187-.165-.004-.331-.012-.495.001-.243.02-.342-.061-.336-.323.018-.77.012-1.538.015-2.308z" clip-rule="evenodd"/>
    <path fill="#E02E3C" fill-rule="evenodd" d="M36.918 11.218c.098-.275.393.04.513-.171.331.32.656.01.984-.011a2.28 2.28 0 0 1 1.325 0c.168.296.002.411-.26.427-.353.021-.71.053-1.06-.046-.028-.008-.075-.015-.075-.009-.007.07.07.05.1.084.451.164.906.122 1.361.03l.087-.078c.091-.079.09-.222.197-.289a.525.525 0 0 1 .354-.009c.134.089.103.21.042.316-.067.117.008.169.073.234-.69.176-1.392.068-2.089.083-.238.005-.494.063-.72-.08-.094-.174-.226-.24-.416-.15a.98.98 0 0 1-.416-.331z" clip-rule="evenodd"/>
    <path fill="#101113" fill-rule="evenodd" d="M58.45 60.043c.372-.002.746.025 1.115-.013.427-.043.364.22.38.486.02.314-.06.467-.407.427-.245-.029-.497.012-.742-.011-.3-.029-.415.062-.4.38.02.463-.01.927-.019 1.39-.168-.068-.2-.216-.2-.37 0-.463-.047-.928.028-1.388.21-.367.563-.334.946-.323-.253-.016-.469.019-.683-.026-.279-.176-.323-.359-.018-.552zM74.429 57.222c-.177.302-.121.644-.07.944.08.472-.001.892-.187 1.311-.233-.681-.462-1.364-.7-2.044-.057-.161-.003-.259.148-.257.27.002.546-.075.809.046zM67.715 62.747l.103-.228c.069-.92.01-1.843.03-2.764.019-.825-.04-1.65.032-2.475.039-.075.108-.058.172-.056.182.091.12.26.12.402-.003 1.457.002 2.913-.003 4.37-.001.262.014.52.091.77-.065.206-.292.224-.42.36-.073.077-.185.149-.284.043-.085-.091-.005-.174.056-.248a.584.584 0 0 0 .103-.174zM64.246 63.68c-.072-.312.466-.508.17-.856-.212-.248-.248-.56-.365-.84-.272-.65-.141-1.295-.137-1.945.281 1.177.614 2.342.838 3.533-.05.286-.177.313-.506.108zM75.745 57.881c.047-.232-.027-.511.258-.648.073.011.141.123.147.114.156-.26.394-.181.567-.085.24.133.044.36.035.546-.203.25-.475.443-.41.852.038.24-.17.475-.206.732-.059.09-.11.213-.248.135-.154-.087-.183-.263-.138-.398.14-.421-.007-.833-.005-1.248z" clip-rule="evenodd"/>
    <path fill="#E32E3D" fill-rule="evenodd" d="M7.955 30.584c-.008-.107-.057-.175-.172-.18-.127-.1-.299-.193-.222-.39.137-.353.486-.093.76-.249-.266-.002-.493.155-.693-.02.263-.286.603-.395.977-.424.154-.011.284.005.192.222-.025.06-.011.135-.013.203-.021.797-.021.797-.83.838z" clip-rule="evenodd"/>
    <path fill="#101113" fill-rule="evenodd" d="M75.745 57.881c.103.36.328.698.116 1.101-.056.107-.038.275-.003.4.062.22.15.026.227-.006.13.175.055.332-.043.487a.152.152 0 0 1-.157.046c-.04-.035.008.016-.032-.022-.004.005.003.005.006.01.006.112.197.107.153.247-.032.194-.066.388-.179.556l-.162.083c.094-.142-.214-.38.111-.468-.087-.114.003-.317-.207-.377-.196-.056-.265-.214-.249-.41-.022-.016-.03-.032-.026-.05.005-.019.011-.028.018-.028l.427-1.569z" clip-rule="evenodd"/>
    <mask id="b" width="3" height="2" x="66" y="62" maskUnits="userSpaceOnUse">
        <path fill="#fff" fill-rule="evenodd" d="M66.801 62.747h1.594v1.158h-1.594v-1.158z" clip-rule="evenodd"/>
    </mask>
    <g mask="url(#b)">
        <path fill="#101113" fill-rule="evenodd" d="M67.715 62.747c.045.148-.136.227-.113.4.226-.074.34-.376.618-.295.01.015.021.03.032.043-.026.176-.013.339.143.457-.449.417-.942.688-1.581.483-.048-.363.03-.661.41-.805.159-.102.363-.126.49-.283z" clip-rule="evenodd"/>
    </g>
    <path fill="#101113" fill-rule="evenodd" d="M68.22 62.852c-.168-.22-.168-.473-.168-.734.004-1.632 0-3.263 0-4.894a.814.814 0 0 1 .662-.002l-.33.018c-.106.114-.08.258-.08.392-.002 1.512-.002 3.023-.001 4.534 0 .15-.013.305.082.437v.083c.064.174.01.23-.165.166zM58.285 60.865c.047.611-.103 1.233.092 1.838l.077.225a.134.134 0 0 1 .026.122c-.047.141-.056.296-.12.428-.104.21-.225.228-.332-.006-.055-1.528-.015-3.055-.022-4.583 0-.124.01-.25.113-.341.147.042-.031-.423.256-.164 0 .054.002.107.003.16-.07.497-.126.994.032 1.486.019-.01.032-.006.04.013-.092.163-.195.327 0 .49a.658.658 0 0 1-.165.332zM90.823 57.222c-.136.122-.081.283-.082.428-.004 1.457-.002 2.914-.002 4.372v.498c-.227-.142-.162-.305-.163-.435-.004-1.485-.013-2.97.005-4.454.004-.335-.105-.453-.421-.409a.83.83 0 0 1 .663 0zM105.145 62.04l.333-.002c.345.067.451.252.279.57-.071.133-.056.287-.11.423a.835.835 0 0 1-.416.485c-.209.02-.16-.201-.263-.28a.349.349 0 0 1-.045-.101c-.016-.052-.001-.148-.03-.15-.057-.003-.013.08-.044.116-.043.07-.102.11-.186.108-.135-.07-.171-.195-.177-.334.211-.032.271-.228.39-.36.124-.14.08-.373.269-.476z" clip-rule="evenodd"/>
    <path fill="#E52C3B" fill-rule="evenodd" d="M68.882 51.594c.01-.227.02-.335-.303-.217-.278.102-.662.202-.939-.114-.008-.27.205-.238.367-.26.373-.049.752.008 1.125-.058.32.066.624.173.917.315-.199.348-.708.494-1.167.334z" clip-rule="evenodd"/>
    <path fill="#101113" fill-rule="evenodd" d="M86.197 57.556c.298-.102.464.283.78.19-.156.203-.448.347-.205.644l.001-.002c-.072.038-.09.134-.174.16-.28-.188-.363-.09-.335.217.019.204.003.412-.001.619-.003.116-.084.18-.185.185-.1.005-.122-.086-.14-.172-.07-.36.108-.718.014-1.083-.02-.078.063-.144.168-.126.22.04.359-.087.35-.277-.013-.281-.22-.04-.325-.086-.025-.011-.03-.071-.044-.108l.096-.16z" clip-rule="evenodd"/>
    <path fill="#E92A3F" fill-rule="evenodd" d="M39.988 11.532l-.082.001c-.497.239-.995.09-1.492 0-.12-.013-.247.032-.384-.064.118-.167.157-.308.455-.157.321.163.728.055 1.096.044.205-.006.143-.194.159-.32.493.103.956-.159 1.479-.127-.327.1-.509.233-.241.54.028.018.037.036.03.055-.01.019-.018.028-.027.028-.011.047-.037.074-.089.064-.364.105-.33-.203-.408-.394h-.413c-.135.083.01.236-.083.33z" clip-rule="evenodd"/>
    <path fill="#E02F3F" fill-rule="evenodd" d="M47.025 10.373c.224-.028.397.06.537.23-.034.14-.166.125-.23.094-.581-.277-1.11-.093-1.636.158-.046.022-.118.032-.16.011-.335-.166-.666.034-.997.003.531-.252 1.072-.478 1.656-.58.278.011.571-.122.83.084z" clip-rule="evenodd"/>
    <path fill="#101113" fill-rule="evenodd" d="M70.719 58.215c.115-.037.307-.335.31.056.01 1.375-.002 2.75-.007 4.125 0 .022-.027.044-.054.086-.157-.108-.095-.27-.096-.4-.005-1.087-.002-2.173-.004-3.26 0-.162.035-.338-.15-.437v-.17zM102.561 61.699c.153.091.081.244.1.371.017.115-.052.308.203.184.123-.06.12.068.113.145-.047.456.163.736.618.78.247.025.31.327.556.335.088.064.161.15.271.182a.182.182 0 0 1 .074.08c-.963.187-1.823-.507-1.915-1.548-.015-.175-.014-.353-.02-.53z" clip-rule="evenodd"/>
    <path fill="#E22F3F" fill-rule="evenodd" d="M70.216 51.324c.468.128.867.4 1.288.625.203.109.255.278.122.482l-.025-.019c-.264-.082-.516-.197-.81-.095-.24.083-.448.002-.584-.225-.122-.104.134-.26-.051-.356a.41.41 0 0 1-.043-.178c.004-.091.022-.177.103-.234z" clip-rule="evenodd"/>
    <path fill="#ED273F" fill-rule="evenodd" d="M69.132 50.945c.08.208-.08.148-.173.15-.325.004-.65.005-.976.002-.145-.001-.275.016-.343.167h-.082c-.105-.273-.307-.187-.469-.099a.64.64 0 0 1-.303.099c-.147.003-.254-.064-.261-.205-.01-.18.15-.108.245-.124a.455.455 0 0 1 .165-.001c.53.106 1.02-.155 1.537-.17.23.022.454.072.66.181z" clip-rule="evenodd"/>
    <path fill="#101113" fill-rule="evenodd" d="M53.317 59.872c.063.017.175.042.11.116-.159.182-.113.389-.105.586.01.248-.107.314-.323.291v-2.648c.143.018.296-.043.437.055-.022.17-.31.066-.284.276.148.213.056.455.082.683.025.214-.063.443.083.641zM98.44 57.234l.081.072c.098.364.086.737.058 1.103a7.948 7.948 0 0 0 .1 2.137c.048.246.023.465-.158.65l-.247-.157c-.034-.151-.033-.297.063-.43.007-.754.016-1.507-.011-2.263-.013-.358-.154-.768.114-1.112z" clip-rule="evenodd"/>
    <path fill="#EC293C" fill-rule="evenodd" d="M27.321 10.208c-.022.104-.04.193-.17.072-.146-.135-.125-.344-.244-.486-.147-.247.16-.448.07-.69.013-.08.006-.17.088-.223.127.055.052.232.175.31.207-.182.24-.423.276-.695.208.176.108.38.136.553-.219.355-.212.775-.33 1.159z" clip-rule="evenodd"/>
    <path fill="#E2303F" fill-rule="evenodd" d="M23.42 16.564c.144.127.26.198.447.02.181-.175.426-.094.647-.032.012.177-.236.064-.201.198.037.142.188.054.284.083-.465.213-.956.218-1.504.216a1.27 1.27 0 0 1 .328-.485z" clip-rule="evenodd"/>
    <path fill="#101113" fill-rule="evenodd" d="M76.002 59.871c.1-.153.084-.325.083-.495.001-.177-.011-.347.111-.507.076-.1.128-.231.014-.373-.093-.115-.02-.223.082-.317.085-.079.192-.126.188-.298-.004-.18.152-.143.272-.073a17.997 17.997 0 0 1-.657 2.068c-.032.029-.064.027-.093-.005zM86.6 58.548c.004-.111.061-.166.174-.16-.172 1.26-.096 2.524-.062 3.788-.073.11.046.33-.196.345h-.082c-.083-.11-.101-.22 0-.33.157-.18.067-.42.15-.624.084-.21-.197-.164-.292-.322.346-.028.31-.268.308-.5-.004-.732 0-1.465 0-2.197z" clip-rule="evenodd"/>
    <path fill="#F02B38" fill-rule="evenodd" d="M63.583 50.12c-.024.148-.135.15-.25.15h-2.148c-.115 0-.226-.002-.251-.15h2.65z" clip-rule="evenodd"/>
    <path fill="#EE273C" fill-rule="evenodd" d="M70.216 51.325l-.01.27c-.082.067-.165.067-.248 0-.402.276-.858.135-1.293.163-.175.012-.352.002-.528.002.188-.328.501-.091.745-.166.427.02.812-.104 1.167-.334.062.004.128 0 .167.065z" clip-rule="evenodd"/>
    <path fill="#101113" fill-rule="evenodd" d="M67.888 57.28l.011 4.972c0 .095.012.194-.08.267-.001-1.63-.003-3.26-.002-4.89 0-.118-.047-.248.071-.349z" clip-rule="evenodd"/>
    <path fill="#EF2742" fill-rule="evenodd" d="M7.627 29.745c.148-.017.31.042.442-.051.105-.074.21-.173.32-.06.106.109.053.254.02.404-.255-.13-.525-.231-.741-.06-.177.14.118.268.115.427-.26.098-.394-.31-.665-.166-.122-.2.097-.175.164-.25.115-.08.23-.162.345-.244z" clip-rule="evenodd"/>
    <path fill="#101113" fill-rule="evenodd" d="M67.224 63.03c-.056.206-.466.286-.22.61.008.01-.123.127-.19.194a.82.82 0 0 1-.674-.288c-.073-.122-.024-.262.088-.245.322.048.504-.201.757-.293l.239.021z" clip-rule="evenodd"/>
    <path fill="#EA2942" fill-rule="evenodd" d="M37.982 22.012c-.259-.066-.555-.037-.743-.327.521-.137 1.02-.052 1.503.183-.246.083-.5.128-.76.144z" clip-rule="evenodd"/>
    <path fill="#EC293E" fill-rule="evenodd" d="M46.776 55.237v-.166a.484.484 0 0 1 .249-.165c.09.048.358-.13.232.193-.065.166.09.14.17.133.184-.014.349.06.522.093a2.093 2.093 0 0 1-.748.246c-.239.012-.451-.01-.425-.334z" clip-rule="evenodd"/>
    <path fill="#DF3144" fill-rule="evenodd" d="M41.723 10.863c-.185-.201-.042-.537.034-.548.284-.038.39-.568.769-.275-.235.306-.476.607-.803.823z" clip-rule="evenodd"/>
    <path fill="#101113" fill-rule="evenodd" d="M55.8 60.539l-.259.358c-.06-.588-.711-.185-.849-.615.529-.179.814-.114 1.06.24.02-.01.037-.004.047.017z" clip-rule="evenodd"/>
    <path fill="#EA293E" fill-rule="evenodd" d="M56.887 52.758c-.245-.004-.422-.239-.687-.198-.073.012-.138-.085-.131-.178.008-.106.094-.121.178-.122.216-.002.432-.001.627-.001.13.19-.219.142-.102.295.08.105.193.063.301.041.082-.017.164-.005.218.074-.122.086-.263.09-.404.089z" clip-rule="evenodd"/>
    <path fill="#F2283E" fill-rule="evenodd" d="M26.992 60.188a.56.56 0 0 1 .45-.15c.569.038 1.148-.089 1.708.1-.716.13-1.438.054-2.158.05z" clip-rule="evenodd"/>
    <path fill="#E82946" fill-rule="evenodd" d="M47.025 10.374c-.277-.024-.566.064-.83-.085.47-.23.977-.328 1.485-.428.001.116-.056.192-.173.176-.271-.038-.4.113-.482.337z" clip-rule="evenodd"/>
    <path fill="#101113" fill-rule="evenodd" d="M58.45 63.017c0-.03.002-.06.004-.089.45 0 .902.018 1.35-.008.31-.017.434.084.379.39-.028.152.068.325-.073.46l-.046-.04c-.155-.496-.487-.684-1.07-.573-.215.04-.403.067-.545-.14zM66.985 63.008c-.081.089-.195.165-.235.27-.067.175-.117.191-.284.095-.13-.074-.303-.047-.326.173a.353.353 0 0 1-.23-.2c.246-.178.716-.11.665-.61.095.154.283.166.41.272zM98.003 60.535c-.197-.043-.481-.021-.273-.369.01-.018-.026-.092-.054-.101-.547-.178-.113-.598-.22-.881.244.425.39.89.547 1.35z" clip-rule="evenodd"/>
    <path fill="#EA2B3F" fill-rule="evenodd" d="M22.932 59.131c.016-.217.16-.251.341-.254.176-.002.247.074.24.244-.008.23.26 0 .29.183-.097.13-.244.046-.366.072-.182-.053-.363-.11-.505-.245z" clip-rule="evenodd"/>
    <path fill="#E52D44" fill-rule="evenodd" d="M63.5 51.512c.096.055.081.149.084.236-.599.156-1.217.083-1.822.165v-.07c.17.002.343.014.497-.083.161-.166.418.003.58-.165.21-.106.438-.079.662-.083z" clip-rule="evenodd"/>
    <path fill="#DF3345" fill-rule="evenodd" d="M20.447 55.067c.015.364-.058.733.072 1.09.069.187-.168.266-.163.433-.244-.524-.163-1.029.09-1.523z" clip-rule="evenodd"/>
    <path fill="#101113" fill-rule="evenodd" d="M57.474 63.76l.313-.01a.405.405 0 0 1 .169-.078c.061-.01.123.002.184.006.552-.116 1.111-.006 1.666-.055.106-.01.221.005.285.119l.019.028c-.88.084-1.758.105-2.636-.01z" clip-rule="evenodd"/>
    <path fill="#DE3445" fill-rule="evenodd" d="M44.71 8.223c.184.112.11.35.235.49-.011.146-.065.266-.225.286-.091.012-.263.007-.268-.017a.65.65 0 0 1 .088-.519c.102-.048.08-.184.17-.24z" clip-rule="evenodd"/>
    <path fill="#EA2B3F" fill-rule="evenodd" d="M22.032 58.63c.252.003.23-.285.435-.399-.007.531.402.247.66.346-.229.113-.565.01-.605.368l-.49-.316z" clip-rule="evenodd"/>
    <path fill="#101113" fill-rule="evenodd" d="M68.22 62.852c.107-.003.162-.058.165-.166.173.007.243.112.258.27a.658.658 0 0 1-.248.395c-.478-.019-.277-.277-.175-.5zM104.979 63.184c.234-.003.108.266.252.332a1 1 0 0 1-.735.26l-.03-.024c-.088-.047-.238-.06-.169-.212.054-.122.155-.254.302-.218.175.043.281-.017.38-.138z" clip-rule="evenodd"/>
    <path fill="#EC2A43" fill-rule="evenodd" d="M24.838 16.333c-.091-.003-.19.014-.25-.083-.028-.018-.037-.036-.028-.055.01-.018.02-.027.029-.027.42-.065.833-.044 1.24.084-.144.12-.286.243-.483.265-.152-.11-.337-.129-.508-.184z" clip-rule="evenodd"/>
    <path fill="#EB2C49" fill-rule="evenodd" d="M42.644 14.68c.233.13.36.375.578.532.17.122.072.289-.101.382a.084.084 0 0 1-.096.004.669.669 0 0 1-.173-.258c-.059-.104-.144-.198-.126-.331a.454.454 0 0 1-.082-.33z" clip-rule="evenodd"/>
    <path fill="#DE3542" fill-rule="evenodd" d="M35.835 10.057c.084-.06.171-.07.261-.013.225.129.386.331.58.495.016.141-.166.178-.164.31a2.521 2.521 0 0 1-.677-.792z" clip-rule="evenodd"/>
    <path fill="#DA303D" fill-rule="evenodd" d="M7.282 29.99c.047.15-.237.081-.164.248-.134-.004-.273.255-.4.001-.112-.226.096-.276.224-.332.22-.097.162-.285.188-.45.161.146-.033.394.152.532z" clip-rule="evenodd"/>
    <mask id="c" width="1" height="2" x="105" y="62" maskUnits="userSpaceOnUse">
        <path fill="#fff" fill-rule="evenodd" d="M105.478 62.034H106v.998h-.522v-.998z" clip-rule="evenodd"/>
    </mask>
    <g mask="url(#c)">
        <path fill="#101113" fill-rule="evenodd" d="M105.647 63.032c-.006-.117-.077-.228-.004-.353.154-.263.118-.485-.165-.64.563-.032.638.074.38.57-.073.14-.062.322-.211.423z" clip-rule="evenodd"/>
    </g>
    <path fill="#E13047" fill-rule="evenodd" d="M26.977 9.105c.314.264-.07.457-.07.69-.152.148-.21.372-.396.494.107-.414.26-.81.466-1.184z" clip-rule="evenodd"/>
    <path fill="#E73147" fill-rule="evenodd" d="M39.16 53.913c-.49-.017-.947.15-1.413.262-.088.02-.123-.026-.159-.087.567-.174 1.155-.239 1.736-.343l.056.03c.044.052.067.106.013.166-.084.047-.162.036-.233-.028z" clip-rule="evenodd"/>
    <path fill="#DE2F3B" fill-rule="evenodd" d="M46.776 55.237c.071.2.261.251.425.334-.082.12-.22.067-.328.107-.158-.212-.576-.206-.51-.606.083-.068.166-.068.248 0 .003.107.058.162.165.165z" clip-rule="evenodd"/>
    <path fill="#101113" fill-rule="evenodd" d="M87.92 57.139c-.273.023-.591-.056-.69.34-.021.084-.138.092-.214.052-.108-.058-.05-.155-.003-.207.138-.148.097-.195-.085-.187.331-.128.662-.129.992.002z" clip-rule="evenodd"/>
    <path fill="#DD3244" fill-rule="evenodd" d="M39.136 14.522c.32-.019.448.157.388.442-.036.172.038.311.046.466-.086.031-.143-.011-.192-.075-.072-.127-.12-.264-.176-.397-.033-.065.009-.142-.036-.205l-.03-.23z" clip-rule="evenodd"/>
    <path fill="#DE3043" fill-rule="evenodd" d="M26.324 10.869c-.068.478-.082.975-.49 1.327.14-.451.247-.914.49-1.327z" clip-rule="evenodd"/>
    <path fill="#101113" fill-rule="evenodd" d="M76.752 57.808c-.004-.054.005-.114-.015-.162-.05-.128.122-.393-.118-.368-.144.015-.47-.17-.47.264l-.146-.31a.613.613 0 0 1 .315-.07c.608-.018.677.083.434.646z" clip-rule="evenodd"/>
    <path fill="#DB3441" fill-rule="evenodd" d="M32.2 13.835c-.037.167-.472.46-.605.394-.105-.053-.21-.038-.314-.053.276-.193.593-.28.919-.34z" clip-rule="evenodd"/>
    <path fill="#E82E47" fill-rule="evenodd" d="M40.401 21.455c.186-.456.544-.411.92-.315a2.55 2.55 0 0 1-.92.315z" clip-rule="evenodd"/>
    <path fill="#DB394F" fill-rule="evenodd" d="M43.297 9.21c-.097-.535.363-.513.656-.659-.054.384-.502.374-.656.658z" clip-rule="evenodd"/>
    <path fill="#101113" fill-rule="evenodd" d="M104.486 62.875c.14.057.104.206.161.307-.082.074-.164.067-.247.001-.165-.033-.273-.199-.47-.18-.094.008-.033-.1-.025-.157l.581.029z" clip-rule="evenodd"/>
    <path fill="#E82E47" fill-rule="evenodd" d="M39.157 21.785c-.016-.05-.031-.145.01-.14.408.06.754-.283 1.166-.174-.366.202-.765.279-1.175.314z" clip-rule="evenodd"/>
    <path fill="#E62A3C" fill-rule="evenodd" d="M40.484 11.202c.074.014.237.013.196.073-.216.318.149.215.212.322a.486.486 0 0 1-.334.099c-.157-.002-.375.048-.169-.23.054-.072.065-.175.095-.264z" clip-rule="evenodd"/>
    <path fill="#101113" fill-rule="evenodd" d="M86.516 62.521c.134-.076.032-.286.196-.345.084.096.05.215.062.324-.064.167-.204.32-.092.518-.459-.032-.15-.318-.166-.497zM98.2 61.009l-.256.325c-.252-.284.106-.487.087-.731l.068.023c.08.056.138.126.152.227a.198.198 0 0 1-.05.156zM63.602 62.772c.239.115.081-.225.272-.2.142.308-.154.571-.128.869-.134-.205-.08-.45-.144-.67zM88.7 63.194c-.263-.123-.448.28-.77.085.292-.11.487-.434.827-.168l-.056.083z" clip-rule="evenodd"/>
    <path fill="#EC2A43" fill-rule="evenodd" d="M25.93 16.176c-.1-.198-.002-.348.15-.44.154-.092.34-.167.496.02l-.152.106c-.125-.02-.22.01-.248.15a.324.324 0 0 1-.246.164z" clip-rule="evenodd"/>
    <path fill="#F12643" fill-rule="evenodd" d="M40.062 1.598c.11.016.244.025.196.185-.044.143-.12.287-.303.284-.079 0-.157-.041-.235-.064l.08-.077c.11-.05.128-.168.185-.256l.077-.072z" clip-rule="evenodd"/>
    <path fill="#E92A3F" fill-rule="evenodd" d="M37.334 11.548c.043-.212.178-.237.307-.104.046.046.345.067.108.255-.154-.006-.306-.02-.415-.151z" clip-rule="evenodd"/>
    <path fill="#101113" fill-rule="evenodd" d="M55.391 63.681c-.129-.02-.307.058-.334-.166.135 0 .261-.004.386-.089.198-.134.182.038.192.158a.314.314 0 0 1-.244.097zM64.246 63.68c.189.059.4.225.506-.108.103.117.123.245-.066.245-.29 0-.587.07-.872-.045.114-.175.298-.016.432-.092z" clip-rule="evenodd"/>
    <path fill="#EB2843" fill-rule="evenodd" d="M39.08 12.85c.002.238-.273.117-.34.263-.117-.111-.066-.247-.065-.412.146.053.294.035.404.15z" clip-rule="evenodd"/>
    <path fill="#101113" fill-rule="evenodd" d="M58.41 60.03c-.204-.095-.13-.284-.118-.427.028-.353-.115-.721.087-1.059l.032 1.486zM83.533 62.025c-.197-.027-.346-.149-.374-.328-.023-.144.124-.227.272-.254-.093.217-.025.405.102.582z" clip-rule="evenodd"/>
    <path fill="#EBD2D0" fill-rule="evenodd" d="M35.433 9.964c-.141-.114-.139-.337-.319-.422-.09-.099-.086-.189.023-.27.208-.046.203.172.31.251.05.085.121.164.071.274l-.085.167z" clip-rule="evenodd"/>
    <path fill="#101113" fill-rule="evenodd" d="M79.137 59.435c.156.22.01.385-.387.438a1.63 1.63 0 0 1 .387-.438z" clip-rule="evenodd"/>
    <path fill="#DE3542" fill-rule="evenodd" d="M35.518 9.797l-.083-.255c-.026-.02-.034-.039-.024-.057.01-.017.02-.026.028-.026.141.194.45.275.398.597-.097-.097-.261-.113-.319-.259z" clip-rule="evenodd"/>
    <path fill="#D93242" fill-rule="evenodd" d="M48.185 55.07c.184-.369.351-.094.523.013-.095.103-.224.113-.351.13-.051-.055-.132-.074-.172-.143z" clip-rule="evenodd"/>
    <path fill="#DE3746" fill-rule="evenodd" d="M42.224 13.85c.413.058.218.433.336.645a1.77 1.77 0 0 1-.336-.645z" clip-rule="evenodd"/>
    <path fill="#101113" fill-rule="evenodd" d="M79.812 55.421c-.028.226.211.142.313.244-.199.12-.393.05-.577.063l.264-.307z" clip-rule="evenodd"/>
    <path fill="#E2303F" fill-rule="evenodd" d="M24.838 16.334c.175.045.427-.124.508.183-.061.096-.162.119-.261.144.15-.284-.196-.195-.247-.327z" clip-rule="evenodd"/>
    <path fill="#EA293E" fill-rule="evenodd" d="M55.884 52.754c.197.038.426-.093.592.11-.072.082-.169.05-.257.057-.142.004-.272-.014-.335-.167z" clip-rule="evenodd"/>
    <path fill="#ED2F43" fill-rule="evenodd" d="M44.384 6.4c.266.161.182.369.077.579-.095-.089-.075-.215-.108-.324a.385.385 0 0 1-.04-.107c0-.061.018-.113.071-.148z" clip-rule="evenodd"/>
    <path fill="#C3C4C6" fill-rule="evenodd" d="M66.088 41.083a1.786 1.786 0 0 1-.177.675l-.077-.171c.033-.173.053-.35.156-.501.032-.03.065-.03.099-.003z" clip-rule="evenodd"/>
    <path fill="#F62346" fill-rule="evenodd" d="M30.72 13.354c-.074-.013-.188.025-.202-.08-.012-.092.09-.081.153-.083.107-.003.223-.024.296.088-.065.082-.157.076-.247.075z" clip-rule="evenodd"/>
    <path fill="#DF3144" fill-rule="evenodd" d="M40.981 11.533c0-.028-.002-.056-.003-.083.076-.189.167-.353.418-.248-.099.16-.271.227-.415.33z" clip-rule="evenodd"/>
    <path fill="#EC293E" fill-rule="evenodd" d="M48.185 55.07c.076.026.254-.07.172.144l-.085.025c-.099-.032-.263.068-.284-.102-.009-.075.123-.059.197-.066z" clip-rule="evenodd"/>
    <path fill="#101113" fill-rule="evenodd" d="M79.476 55.897c.201.232.023.323-.154.415a.463.463 0 0 1 .154-.415zM105.145 62.04c-.051.18-.099.362-.269.475.1-.153-.133-.493.269-.476zM61.426 60.687c.041.095.093.187.12.286.017.056.069.148-.014.18-.094.036-.111-.099-.185-.125.007-.118-.04-.249.079-.34z" clip-rule="evenodd"/>
    <path fill="#D43544" fill-rule="evenodd" d="M2.903 35.956c-.021-.078-.128-.174.002-.23.13-.057.228 0 .249.152-.06.102-.158.081-.25.078z" clip-rule="evenodd"/>
    <path fill="#DF3144" fill-rule="evenodd" d="M41.396 11.202c-.204-.412.195-.243.322-.335-.083.134-.17.265-.322.335z" clip-rule="evenodd"/>
    <path fill="#101113" fill-rule="evenodd" d="M82.542 62.85c-.008-.167-.128-.165-.247-.164.15-.367.287-.072.428.008l-.181.156zM82.789 62.695c.277-.068.419.007.335.319l-.335-.319z" clip-rule="evenodd"/>
    <path fill="#E62A3C" fill-rule="evenodd" d="M26.176 16.013c-.083-.058-.1-.127-.019-.196.102-.086.195-.073.267.045-.055.095-.15.125-.248.15z" clip-rule="evenodd"/>
    <path fill="#F82144" fill-rule="evenodd" d="M28.082 6.9c.109.001.221-.003.225.152.002.052-.002.124-.063.125-.136 0-.131-.141-.19-.22-.004-.026.006-.045.028-.057z" clip-rule="evenodd"/>
    <path fill="#E5BDB0" fill-rule="evenodd" d="M42.726 15.009c.116.079.14.206.17.33-.03.03-.063.036-.102.015-.12-.083-.182-.212-.251-.335l.183-.01z" clip-rule="evenodd"/>
    <path fill="#D83741" fill-rule="evenodd" d="M41.568 16.163c-.193-.088-.302-.209-.165-.425l.167.177a.18.18 0 0 1 .051.152.274.274 0 0 1-.053.096z" clip-rule="evenodd"/>
    <path fill="#DE3B4C" fill-rule="evenodd" d="M42.226 11.882c-.023.27-.247.26-.43.309.068-.209.251-.256.43-.31z" clip-rule="evenodd"/>
    <path fill="#EDC6D0" fill-rule="evenodd" d="M45.71 6.986l.014-.25c.1-.051.172-.053.157.092-.011.142.016.292-.087.414-.037-.082.01-.192-.084-.256z" clip-rule="evenodd"/>
    <path fill="#DE3746" fill-rule="evenodd" d="M42.063 13.52c.088.022.193-.108.258.002.071.117-.1.171-.112.276a.339.339 0 0 1-.146-.279z" clip-rule="evenodd"/>
    <path fill="#101113" fill-rule="evenodd" d="M105.536 57.642c-.106.055-.21.126-.333.038.007-.124.15-.112.188-.201.082.024.114.092.145.163z" clip-rule="evenodd"/>
    <path fill="#C5C6C8" fill-rule="evenodd" d="M40.303 41.567c.032-.139-.018-.294.087-.418l.084.176-.084.408c-.162.014-.098-.09-.087-.166z" clip-rule="evenodd"/>
    <path fill="#101113" fill-rule="evenodd" d="M61.843 58.962c.043.152.23.337-.093.405.016-.138-.016-.288.093-.405z" clip-rule="evenodd"/>
    <path fill="#F72244" fill-rule="evenodd" d="M45.626 19.977c-.045-.022-.115-.035-.128-.07-.022-.061.041-.084.095-.091.117-.017.203.034.268.129l-.235.032z" clip-rule="evenodd"/>
    <path fill="#FBCEC7" fill-rule="evenodd" d="M44.37 6.6a.246.246 0 0 1-.017.055 88.094 88.094 0 0 0-.162-.02c.01-.185-.043-.382.087-.549.122.155 0 .353.092.513z" clip-rule="evenodd"/>
    <path fill="#D83D55" fill-rule="evenodd" d="M57.04 6.887l-.078-.142h.405c-.087.177-.205.166-.328.142z" clip-rule="evenodd"/>
    <path fill="#D84152" fill-rule="evenodd" d="M40.393 13.518c-.065-.097-.382.063-.245-.24.202-.042.227.095.245.24z" clip-rule="evenodd"/>
    <path fill="#D03C4C" fill-rule="evenodd" d="M46.682 1.189c-.206.115-.302.04-.314-.181.129.018.24.066.314.18z" clip-rule="evenodd"/>
    <path fill="#101113" fill-rule="evenodd" d="M76.002 59.871l.093.005c-.006.096.014.2-.083.268-.077-.08-.23-.109-.176-.272h.166z" clip-rule="evenodd"/>
    <path fill="#E2303F" fill-rule="evenodd" d="M24.672 16.818c.062-.25.267-.12.41-.155-.116.107-.265.125-.41.155z" clip-rule="evenodd"/>
    <path fill="#D93B54" fill-rule="evenodd" d="M27.81 16.232c.015.291-.172.21-.332.18.101-.077.199-.16.331-.18z" clip-rule="evenodd"/>
    <path fill="#EED3D7" fill-rule="evenodd" d="M41.576 16.083l-.006-.168c.094-.064.055-.169.08-.254.075.065.081.155.085.245.043.145.041.25-.159.177z" clip-rule="evenodd"/>
    <path fill="#454648" fill-rule="evenodd" d="M68.467 39.011c.002.12-.052.237-.169.205-.132-.036-.069-.136.01-.202.055.13.106.01.159-.003z" clip-rule="evenodd"/>
    <path fill="#DE3B4C" fill-rule="evenodd" d="M42.713 11.865c-.142-.095-.289.038-.431-.011.145-.067.296-.329.43.01z" clip-rule="evenodd"/>
    <path fill="#101113" fill-rule="evenodd" d="M74.73 58.05c-.308-.008-.155-.198-.132-.336l.132.336z" clip-rule="evenodd"/>
    <path fill="#EEC3C0" fill-rule="evenodd" d="M43.722 14.178l-.102-.402.172-.012a.1.1 0 0 1 .014.078c.015.123.125.27-.084.336z" clip-rule="evenodd"/>
    <path fill="#101113" fill-rule="evenodd" d="M98.2 61.008a79.712 79.712 0 0 0-.009-.143c.057-.07-.014-.186.084-.243.02-.01.04-.014.061-.013-.003.146.066.302-.062.43a.2.2 0 0 0-.073-.03z" clip-rule="evenodd"/>
    <path fill="#F4254D" fill-rule="evenodd" d="M44.71 8.223c-.028.1.06.282-.17.24l.015-.244.154.004z" clip-rule="evenodd"/>
    <path fill="#A0A0A2" fill-rule="evenodd" d="M49.023 43.738c-.02-.114.021-.203.099-.294.112.096.068.196.048.292l-.147.002z" clip-rule="evenodd"/>
    <path fill="#DE3543" fill-rule="evenodd" d="M3.641 27.59l.015-.114c.083.056.181.096.22.2-.11.061-.218.112-.235-.085z" clip-rule="evenodd"/>
    <path fill="#DADBDD" fill-rule="evenodd" d="M28.153 49.195c-.034-.126.067-.216.088-.328.032-.029.064-.028.097-.002-.035.11.008.241-.094.332l-.09-.002z" clip-rule="evenodd"/>
    <path fill="#EED4C9" fill-rule="evenodd" d="M39.166 14.753l.079.172c.046.088.071.166-.076.163-.057-.065-.115-.13-.113-.225l.11-.11z" clip-rule="evenodd"/>
    <path fill="#101113" fill-rule="evenodd" d="M96.798 60.218c-.066-.246.05-.243.223-.164l-.005.164c-.073-.036-.145-.062-.218 0zM75.318 59.45a.416.416 0 0 1 .008.077c-.065.026-.041.172-.145.127-.07-.03-.085-.12-.078-.2l.215-.004z" clip-rule="evenodd"/>
    <path fill="#C83D4C" fill-rule="evenodd" d="M39.986 1.67c.006.135 0 .26-.186.256.006-.126.09-.195.186-.256z" clip-rule="evenodd"/>
    <path fill="#646567" fill-rule="evenodd" d="M74.507 42.483c.002-.082.02-.188.112-.173.102.017.043.126.043.197a97.508 97.508 0 0 1-.155-.024z" clip-rule="evenodd"/>
    <path fill="#101113" fill-rule="evenodd" d="M83.127 63.016l.244.02-.09.163c-.095-.025-.12-.108-.154-.183z" clip-rule="evenodd"/>
    <path fill="#E73147" fill-rule="evenodd" d="M39.739 53.663l.002.084-.044.044c-.124.067-.24.036-.352-.03l-.021-.016c.119-.125.275-.062.415-.082z" clip-rule="evenodd"/>
    <path fill="#101113" fill-rule="evenodd" d="M98.275 60.622c-.01.088.016.187-.084.243l-.092-.239.175-.004z" clip-rule="evenodd"/>
    <path fill="#E4C9BA" fill-rule="evenodd" d="M33.528 10.547c-.09-.06-.091-.158-.107-.25.036-.042.075-.045.118-.01.056.044.103.093.076.174l-.087.086z" clip-rule="evenodd"/>
    <path fill="#101113" fill-rule="evenodd" d="M79.774 34.44c-.093 3.023-.913 5.866-2.231 8.574-.084.172-.2.33-.31.486-.065.091-.156.17-.278.146-.139-.028-.132-.156-.149-.264a10.65 10.65 0 0 1-.138-1.972c-.09-1.333.377-2.572.675-3.834.305-1.291.642-2.58 1.148-3.813.11-.267.23-.53.407-.762.103-.136.215-.273.398-.25.21.026.269.22.328.387.149.42.163.874.15 1.301zm-13.751 6.694a.758.758 0 0 0-.029.065l.028-.084c.025-.067.035-.14.084-.21-.039.081-.061.155-.083.23zM39.323 40c-.1.85-.391 1.653-.654 2.46-.553 1.694-1.153 3.373-1.957 4.97-.13.26-.292.497-.476.719-.079.095-.174.194-.313.157-.174-.047-.16-.2-.16-.34v-.372c.06-1.214.384-2.38.698-3.542.4-1.483.841-2.956 1.485-4.358.156-.34.49-.469.932-.37.373.084.486.336.446.676zm12.673.044c.35-1.372.754-2.725 1.42-3.984.193-.367.426-.715.774-.953.365-.25.59-.123.618.32.029.445-.046.877-.163 1.304-.417 1.524-1.023 2.955-2.054 4.176-.24.284-.511.529-.973.734.14-.595.252-1.098.378-1.597zm29.883-6.62a3.946 3.946 0 0 0-.35-1.22c-.284-.576-.737-.894-1.407-.898-1.156-.008-2.216.226-2.86 1.29-.775 1.281-1.282 2.688-1.75 4.104-.388 1.175-.674 2.371-1.352 3.45a32.181 32.181 0 0 0-2.005 3.768c-.054.117-.048.329-.214.311-.193-.02-.14-.232-.161-.37-.146-.963-.178-1.942-.414-2.89-.22-.881-.553-1.063-1.437-.795-.121.037-.237.145-.383.036.017-.04.028-.08.05-.111a200.738 200.738 0 0 0 4.571-6.505c.45-.673.912-1.341 1.26-2.076.04-.083.126-.175.056-.268-.08-.107-.203-.058-.306-.028-.268.08-.488.244-.703.418-.808.655-1.475 1.443-2.138 2.234-1.379 1.645-2.631 3.386-3.87 5.137-.042.045-.06.137-.151.098-.041-.017-.042-.06-.007-.095.058-.308.103-.62.176-.925.626-2.596 1.178-5.209 1.742-7.819.576-2.664 1.169-5.324 1.6-8.017.028-.171.13-.404-.044-.491-.202-.1-.33.136-.454.272-.11.12-.208.258-.287.402a10.092 10.092 0 0 0-.831 2.003c-.618 2.07-1.111 4.176-1.816 6.22-1.053 3.052-2.14 6.09-3.372 9.074-.397.96-.775 1.93-1.324 2.818-.057.092-.117.225-.242.181-.159-.055-.091-.193-.069-.317.17-.933.468-1.832.72-2.743.295-1.07.61-2.134.656-3.251.031-.773-.233-1.145-.94-1.342-.294-.082-.6-.07-.898.004-.931.23-1.715.721-2.397 1.383-.338.329-.67.665-1.005.997.219-.835.507-1.623.641-2.455.06-.374-.035-.61-.449-.676-.416-.066-.82-.01-1.232.026-.26.023-.38.102-.456.358a677.963 677.963 0 0 1-1.818 5.964c-.229.741-.362 1.524-.74 2.206a20.222 20.222 0 0 1-2.035 2.994c-.365.448-.736.896-1.253 1.186-.505.284-.819.16-.93-.406-.189-.958-.077-1.915.046-2.872.027-.212.092-.28.303-.332 1.259-.308 2.182-1.07 2.796-2.196a14.584 14.584 0 0 0 1.559-4.527c.147-.854.23-1.73-.103-2.57-.366-.921-1.302-1.215-2.162-.707-.584.345-1.015.844-1.397 1.383-1.207 1.705-2.014 3.601-2.639 5.582-.214.68-.214.68-.882.465-.02-.007-.048.01-.076.018-.092.464-.033.904.247 1.293.133.184.12.33 0 .514-.311.484-.585.994-.916 1.464-.356.506-.721 1.01-1.183 1.43-.096.087-.203.248-.344.171-.133-.073-.07-.256-.046-.378.059-.307.15-.608.228-.912.561-2.143 1.295-4.242 1.702-6.425.069-.369.307-.777-.016-1.14a3.753 3.753 0 0 0-1.316-.976c-.442-.191-.837-.161-1.206.202-.786.775-1.453 1.648-2.122 2.522l-.65.847c-.073-1.241-.197-1.352-1.334-1.432-.297-.021-.43.04-.504.348-.234.97-.505 1.93-.762 2.893-.099.107-.111.249-.152.379-.014.113-.058.22-.083.331-.014.046 0 .098-.041.142.041-.098.038-.2.076-.29.038-.109.044-.226.084-.335.07-.13-.038-.273.032-.403-.01-.822.096-1.648-.145-2.461-.337-1.14-1.078-1.446-2.085-.827-1.056.65-1.788 1.615-2.49 2.605a.481.481 0 0 0-.075.136c.31.255-.032.427-.088.624-.078.274-.227.527-.313.8-.618 1.957-1.206 3.926-2.084 5.788-.332.704-.662 1.422-1.256 1.964-.15.137-.312.244-.519.157-.2-.085-.278-.27-.281-.47a6.311 6.311 0 0 1 .033-.866c.275-2.237.862-4.406 1.475-6.567.537-1.894 1.092-3.785 1.864-5.602.09-.211.197-.32.44-.346a29.54 29.54 0 0 0 4.375-.788c.904-.235 1.792-.523 2.575-1.054.144-.098.412-.186.318-.422-.306-.767-.643-1.528-1.332-2.043-.33-.247-.702-.196-.996.11-.321.334-.706.568-1.124.75-.68.294-1.391.491-2.11.668-.425.105-.844.24-1.318.292a7.376 7.376 0 0 0 .405-1.64c.037-.291.07-.617-.31-.765-.413-.16-.535.143-.672.413-.327.649-.65 1.3-.967 1.953-.09.186-.202.296-.42.337a42.141 42.141 0 0 1-5.147.646c-.907.058-1.816.11-2.724.141-.238.008-.259.106-.255.3.017.818.518 1.285 1.434 1.296 1.835.024 3.67.015 5.502-.085.345-.019.426.047.293.395-.471 1.224-.895 2.466-1.373 3.688-.562 1.434-.938 2.95-1.883 4.22-.58.783-1.059 1.641-1.713 2.371-.071.079-.142.209-.264.15-.144-.068-.077-.216-.054-.33.115-.562.246-1.121.355-1.684.204-1.051.474-2.093.453-3.178-.006-.33-.132-.546-.415-.69-.822-.42-1.569-.22-2.287.263-.396.266-.721.613-1.054.975-.122-.188-.045-.309-.004-.434.06-.183.122-.366.168-.553.073-.3.033-.51-.363-.486-.398.023-.8.028-1.198.001-.276-.018-.42.1-.556.316a289.236 289.236 0 0 1-4.508 6.947c-.85 1.268-1.698 2.535-2.654 3.726-.104.13-.225.365-.406.28-.153-.073-.038-.288.005-.444 1.041-3.72 2.46-7.302 3.96-10.855.098-.233.243-.262.448-.256.69.022 1.378.05 2.068.055.353.003.475-.224.344-.555-.09-.225-.286-.292-.479-.35-.552-.167-1.11-.317-1.675-.477.577-1.194 1.133-2.368 1.917-3.424.617-.831.516-1.679-.216-2.423-.6-.611-1.358-.966-2.133-1.294-.231-.099-.402-.079-.59.093-.609.559-1.24 1.093-1.843 1.658-1.832 1.718-3.534 3.56-5.15 5.48-.129.153-.257.265-.47.298-1.18.18-2.357.378-3.517.66-1.238.302-2.474.609-3.705.932-.097.025-.328-.032-.286.243.09.596.954 1.651 1.53 1.773a5.444 5.444 0 0 0 1.926.072c.516-.076 1.038-.113 1.59-.17a67.615 67.615 0 0 0-2.698 4.184C3.77 50.583 2.24 53.953 1.115 57.507a.549.549 0 0 0 .003.396c.2.496.387.998.684 1.449.259.394.544.76.988.962.45.205.547.168.718-.288a121.66 121.66 0 0 1 4.272-9.96 80.515 80.515 0 0 1 4.174-7.608c.085-.135.163-.286.34-.345.989-.323 1.949-.73 2.96-.984.066-.016.132-.072.19-.018.08.074.01.146-.021.22a185.69 185.69 0 0 0-2.704 6.827c-.809 2.164-1.617 4.327-2.154 6.579-.338 1.418.009 2.136 1.322 2.735.332.15.64.33.865.616.9 1.15 3.137.854 3.666-.73.559-1.673 1.142-3.337 1.722-5.002.17-.487.363-.965.567-1.502.117.188.035.285.027.387-.065.86-.09.905.575 1.286.405.231.837.414 1.243.643.248.14.324.085.41-.18.698-2.146 1.398-4.29 2.23-6.389.47-1.183.92-2.379 1.648-3.437.17-.248.383-.635.72-.502.347.137.205.567.162.86-.172 1.181-.469 2.336-.771 3.49-.296 1.127-.63 2.25-.456 3.442.128.886.674 1.473 1.495 1.566.831.094 1.226-.203 1.596-1.154.213-.55.282-1.146.567-1.67a.426.426 0 0 0 .117-.25l.002-.029v.009c.008.088-.05.176-.028.272-.005.468-.023.936-.011 1.404.01.443.153.888.53 1.106.74.426 1.334 1.005 1.947 1.578.398.372.921.304 1.267-.111.114-.136.21-.288.305-.44.64-1.03 1.01-2.175 1.414-3.306.04-.11-.002-.289.2-.316.046.13.086.258.136.382.474 1.175 1.717 1.57 2.745.85.897-.627 1.406-1.558 1.871-2.515.055-.112.06-.262.225-.305.065.139-.006.252-.025.37-.112.68.081 1.025.72 1.272.268.104.552.172.81.294s.305.044.373-.21c.478-1.783.977-3.561 1.474-5.34.21-.75.33-1.546.666-2.236a18.997 18.997 0 0 1 1.927-3.112c.323-.428.655-.851 1.102-1.163.141-.1.299-.177.462-.107.19.08.15.274.15.437-.001.46-.134.896-.274 1.324-.62 1.896-1.364 3.75-1.916 5.672-.289 1.005-.417 2.01-.224 3.047.057.307.21.484.536.526.302.04.589.131.81.37.282.305.595.282.925.07.676-.431 1.077-1.093 1.429-1.774.528-1.025.864-2.128 1.205-3.226.048-.065.096-.205.146-.002-.022 1.226-.07 2.453.256 3.654.12.446.301.865.704 1.123.462.296.937.574 1.422.83.886.468 1.196.378 1.798-.427a8.878 8.878 0 0 0 1.468-3.006c.128.645.51.811.964.874.272.037.549.047.82.091.342.056.501-.07.608-.411.634-2.021 1.18-4.076 2.396-5.865.656-.965 1.242-1.98 2.072-2.813.232-.233.533-.657.825-.463.292.194.006.637-.105.942-.4 1.104-.852 2.19-1.25 3.294-.364 1.009-.657 2.036-.63 3.128.021.874.667 1.619 1.536 1.684.38.029.729.123 1.071.266.609.254.603.245.867-.356.678-1.54 1.204-3.139 1.843-4.694a.808.808 0 0 0 .125-.27c-.032.144-.032.294-.048.441.015.32-.071.629-.143.935a69.023 69.023 0 0 0-1.097 5.679c-.078.537.058.715.6.822.547.11 1.094.092 1.645.033.208-.022.293-.084.322-.317.19-1.551.469-3.087.909-4.588.25-.856.526-1.707 1.085-2.425.233-.3.366-.268.492.095.032.09.054.184.067.279.085.653.162 1.307.25 1.96.113.84.382 1.593 1.134 2.098.898.603 2.041.584 2.413-.785.279-1.028.61-2.041.92-3.06.06-.052.115-.063.154.023A3.804 3.804 0 0 0 74.938 44c.215.519.565.958 1.14 1.038 1.025.142 2-.035 2.855-.67 1.183-.878 1.777-2.126 2.203-3.48.332-1.052.456-2.142.598-3.231.183-1.408.337-2.814.145-4.233z" clip-rule="evenodd"/>
    <path fill="#FDFDFD" fill-rule="evenodd" d="M14.29 39.272c.223-.507.584-.813.885-1.151.583-.657 1.201-1.287 1.907-1.819.1-.075.206-.258.345-.147.106.085.052.267.002.392-.273.673-.603 1.328-.824 2.017-.167.522-.456.66-.959.619a4.612 4.612 0 0 0-1.357.09z" clip-rule="evenodd"/>
    <path fill="#1F2022" fill-rule="evenodd" d="M18.71 50.682a.605.605 0 0 1 .302-.549c.039.198-.05.331-.11.471-.094-.045-.083.162-.192.078zM19.057 49.961c-.02-.306.038-.478.227-.7-.02.27-.077.439-.227.7z" clip-rule="evenodd"/>
    <path fill="#818284" fill-rule="evenodd" d="M39.253 46.308c-.009.157-.03.307-.2.425-.038-.213.101-.348.12-.51.075-.018.115-.002.08.085z" clip-rule="evenodd"/>
    <path fill="#78797B" fill-rule="evenodd" d="M40.303 41.567l.087.166-.078.328c-.15.02-.115-.071-.092-.154.027-.114-.016-.244.083-.34z" clip-rule="evenodd"/>
    <path fill="#393A3C" fill-rule="evenodd" d="M40.22 41.907l.092.154-.118.319c-.048-.203-.074-.34.026-.473z" clip-rule="evenodd"/>
    <path fill="#757678" fill-rule="evenodd" d="M18.71 50.682c.082.02.06-.218.191-.078-.038.078.008.213-.118.226-.096.01-.069-.087-.073-.148z" clip-rule="evenodd"/>
    <path fill="#868789" fill-rule="evenodd" d="M66.088 41.083l-.098.003c-.004-.117.05-.209.125-.299.061.11.073.208-.026.296z" clip-rule="evenodd"/>
    <path fill="#636466" fill-rule="evenodd" d="M39.253 46.308l-.08-.085.07-.257c.077-.025.11.005.101.084-.021.089-.003.192-.09.258z" clip-rule="evenodd"/>
    <path fill="#A0A1A3" fill-rule="evenodd" d="M28.338 48.865l-.097.002c-.02-.107.041-.177.115-.244.073.088.065.168-.018.242z" clip-rule="evenodd"/>
    <path fill="#2A2B2D" fill-rule="evenodd" d="M39.344 46.05l-.102-.085c.011-.065.026-.162.11-.12.09.047.053.137-.008.205z" clip-rule="evenodd"/>
    <path fill="#EA2942" fill-rule="evenodd" d="M37.032 21.787h-2.596l-.003-.121c.864-.077 1.731-.029 2.597-.028l.002.149z" clip-rule="evenodd"/>
    <path fill="#EF263C" fill-rule="evenodd" d="M30.108 20.314c.51 0 1.02-.002 1.53.001.098.001.144.07.143.165-.003.13-.116.192-.194.148-.467-.263-.988-.101-1.477-.176l-.002-.138z" clip-rule="evenodd"/>
    <path fill="#F2C0BE" fill-rule="evenodd" d="M41.576 16.083c.116-.003.146-.082.16-.177l.165.423c.021.087-.02.112-.1.101-.088-.08-.062-.26-.233-.267a.138.138 0 0 1 .008-.08z" clip-rule="evenodd"/>
    <path fill="#F2B1B2" fill-rule="evenodd" d="M43.721 14.178c.116-.09.056-.224.085-.336.107.19.078.39.079.607-.16-.054-.168-.16-.164-.27z" clip-rule="evenodd"/>
    <path fill="#F79DA4" fill-rule="evenodd" d="M39.169 15.088l.076-.163.184.406c.015.079-.022.1-.094.085l-.166-.328z" clip-rule="evenodd"/>
    <path fill="#DD3244" fill-rule="evenodd" d="M39.578 15.505c.082.07.136.153.124.299-.139-.031-.213-.13-.292-.22a.198.198 0 0 1 .168-.079z" clip-rule="evenodd"/>
    <path fill="#F3B3B0" fill-rule="evenodd" d="M42.794 15.354l.103-.016c.098.053.119.156.161.246.03.085-.01.104-.085.088-.071-.1-.17-.183-.178-.318z" clip-rule="evenodd"/>
    <path fill="#FB9097" fill-rule="evenodd" d="M41.802 16.43l.099-.101.082.162c.03.085.075.177-.084.166l-.097-.227z" clip-rule="evenodd"/>
    <path fill="#FB828B" fill-rule="evenodd" d="M42.972 15.672l.086-.088c.02.006.041.01.063.01l.08.267c-.148 0-.183-.1-.229-.19z" clip-rule="evenodd"/>
    <path fill="#F76572" fill-rule="evenodd" d="M39.578 15.505c-.036.07-.098.083-.168.08a123.9 123.9 0 0 0-.075-.17l.094-.084.141.1c0 .025.002.05.008.075z" clip-rule="evenodd"/>
    <path fill="#ED7077" fill-rule="evenodd" d="M41.9 16.657c.067-.035.072-.102.083-.166.08.085.122.2.039.28-.049.047-.1-.053-.123-.114z" clip-rule="evenodd"/>
    <path fill="#EB2741" fill-rule="evenodd" d="M36.676 10.54c-.306-.034-.445-.262-.58-.496l-.146-.324c.301.112.63.068.712.46.014.067.117.218.246.168.165-.065.004-.186.018-.281.012-.078-.019-.166.09-.241.127.215.103.446.042.652-.063.215-.218.267-.382.061z" clip-rule="evenodd"/>
    <path fill="#F4EAE6" fill-rule="evenodd" d="M38.6 7.221c-.246-.419-.409-.875-.58-1.326-.088-.054-.058-.147-.076-.224.014-.065.049-.112.114-.133.146-.021.126.13.196.188.17.442.406.858.502 1.327.037.139.048.253-.156.168z" clip-rule="evenodd"/>
    <path fill="#F3E6E6" fill-rule="evenodd" d="M38.168 8.487c-.372-.556-.516-1.198-.686-1.831-.017-.04-.005-.068.037-.082.435.461.603 1.03.666 1.641.098.097.129.19-.017.272z" clip-rule="evenodd"/>
    <path fill="#EC2B3F" fill-rule="evenodd" d="M37.52 6.574l-.038.082-.12.219c-.142-.118-.064-.285-.051-.393.029-.246.04-.464-.034-.714-.073-.251.118-.393.392-.36.063.038.087.095.083.167-.01.069-.024.145-.119.115-.066-.021-.135-.141-.19-.014-.051.117-.003.214.144.228.095.138.114.276 0 .414-.096.066-.238.12-.068.256z" clip-rule="evenodd"/>
    <path fill="#E92A3F" fill-rule="evenodd" d="M39.74 11.036h-1.325c.014-.114.08-.165.193-.165.313.002.626.002.939 0 .113 0 .178.052.193.165z" clip-rule="evenodd"/>
    <path fill="#E42E49" fill-rule="evenodd" d="M35.188 9.274c-.117.064-.081.17-.074.268-.121-.062-.324-.153-.296-.244.07-.23-.055-.43-.03-.643.008-.06.063-.1.12-.082.16.05.18.186.185.327-.136.147.022.197.091.277a.09.09 0 0 1 .004.097z" clip-rule="evenodd"/>
    <path fill="#DD2F3D" fill-rule="evenodd" d="M27.321 10.208c.002-.417-.034-.845.331-1.159-.025.41-.094.809-.33 1.159z" clip-rule="evenodd"/>
    <path fill="#D23B49" fill-rule="evenodd" d="M37.752 5.575c-.065-.037-.08-.1-.083-.167.04-.231.226-.184.357-.152.243.058.216.281.228.47l-.166-.159c-.083-.037-.119-.01-.107.08l.038.248c-.156-.05-.134-.25-.267-.32z" clip-rule="evenodd"/>
    <path fill="#DA3345" fill-rule="evenodd" d="M35.188 9.275c0-.016 0-.032.002-.048-.028-.057-.167-.08-.052-.178.09-.093.252.33.304-.043.006-.042.035-.087.078-.048a.212.212 0 0 1 .068.135c.005.141-.17.215-.149.367a.754.754 0 0 0-.004.082c-.144-.032-.136-.205-.247-.267z" clip-rule="evenodd"/>
    <path fill="#D5333A" fill-rule="evenodd" d="M34.44 10.208c.128.013.19.083.105.19-.07.089-.014.356-.27.224-.123-.154-.049-.282.054-.405.035-.036.072-.04.112-.009z" clip-rule="evenodd"/>
    <path fill="#F3233E" fill-rule="evenodd" d="M34.36 10.21l-.085.412c-.134-.009-.273-.07-.261-.198.009-.095.118-.21.26-.216.03-.029.059-.028.087.002z" clip-rule="evenodd"/>
    <path fill="#D95269" fill-rule="evenodd" d="M38.168 8.487c.066-.087.06-.178.017-.272.245.034.221.186.159.357-.023.062-.039.144-.13.098-.07-.036-.05-.116-.046-.183z" clip-rule="evenodd"/>
    <path fill="#DA3336" fill-rule="evenodd" d="M37.587 6.318v-.414c.234.037.16.22.157.357-.003.109-.066.144-.157.057z" clip-rule="evenodd"/>
    <path fill="#DE3043" fill-rule="evenodd" d="M26.166 11.86c.203.186.157.318.127.5-.183-.142-.118-.283-.127-.5z" clip-rule="evenodd"/>
    <path fill="#F4B3AE" fill-rule="evenodd" d="M38.6 7.221c.12.007.138-.08.155-.168.115.131.056.301.156.476-.191-.074-.267-.176-.31-.308z" clip-rule="evenodd"/>
    <path fill="#E2303F" fill-rule="evenodd" d="M24.588 16.168v.083c-.049.022-.096.054-.147.063-.102.018-.253.056-.24-.105.011-.155.149-.015.227-.04.05-.014.107-.001.16 0z" clip-rule="evenodd"/>
    <path fill="#DA3432" fill-rule="evenodd" d="M38.128 6.739c.014.09-.006.136-.075.14-.086.006-.121-.05-.127-.125-.006-.07.001-.159.09-.142.05.008.086.095.112.127z" clip-rule="evenodd"/>
    <path fill="#F9A6AA" fill-rule="evenodd" d="M45.881 6.828a.178.178 0 0 0-.157-.092c-.064-.162.168-.184.154-.323.148-.006.114.078.079.163-.002.09-.005.181-.076.252z" clip-rule="evenodd"/>
    <path fill="#EEA09B" fill-rule="evenodd" d="M35.138 9.049l.052.177c-.206-.01-.247-.174-.245-.318.002-.114.095-.028.148-.008l.044.149z" clip-rule="evenodd"/>
    <path fill="#F7203F" fill-rule="evenodd" d="M53.9 5.569c-.036.185-.14.2-.29.116.046-.18.195-.08.291-.115v-.001z" clip-rule="evenodd"/>
    <path fill="#F8223A" fill-rule="evenodd" d="M34.36 10.21l-.085-.002c.02-.096-.048-.219.083-.288.132.07.062.192.083.288l-.08.002z" clip-rule="evenodd"/>
    <path fill="#AE474C" fill-rule="evenodd" d="M44.37 6.6c-.107-.158-.082-.34-.092-.514.152.065.075.208.106.314l-.014.2z" clip-rule="evenodd"/>
    <path fill="#DE4350" fill-rule="evenodd" d="M45.87 6.323c.015-.083-.05-.212.1-.22.064-.003.138.044.06.133-.043.047-.07.125-.16.087z" clip-rule="evenodd"/>
    <path fill="#FB203D" fill-rule="evenodd" d="M52.306 5.18c-.05.021-.083.046-.116.046-.06 0-.095-.042-.063-.099.012-.022.068-.035.099-.028.027.005.046.044.08.08z" clip-rule="evenodd"/>
    <path fill="#F8AFB0" fill-rule="evenodd" d="M33.539 10.287l-.118.01c-.082-.078-.113-.176-.145-.336.186.078.196.226.263.326z" clip-rule="evenodd"/>
    <path fill="#E2797A" fill-rule="evenodd" d="M45.87 6.323l.16-.087c-.002.118.03.243-.073.34l-.08-.163-.007-.09z" clip-rule="evenodd"/>
    <path fill="#E52C3B" fill-rule="evenodd" d="M62.424 50.932c.029-.117-.188-.199-.096-.275.152-.125.373-.084.545-.035.274.078.542.375.748-.101.03-.07.142.044.17.108.09.201.024.314-.208.304-.386.128-.773.13-1.159 0z" clip-rule="evenodd"/>
    <path fill="#EE2542" fill-rule="evenodd" d="M62.424 50.932h1.16v.166c-.372 0-.743.005-1.114-.003-.156-.003-.283-.039-.046-.163z" clip-rule="evenodd"/>
    <path fill="#DA3138" fill-rule="evenodd" d="M39.16 53.913h.248c.08-.117.252-.049.332-.165.262.06.117.25.036.271-.206.055-.462.204-.616-.106z" clip-rule="evenodd"/>
    <path fill="#F42241" fill-rule="evenodd" d="M51.015 53.69c.272-.141.431-.121.638-.058-.185.173-.354.113-.638.058z" clip-rule="evenodd"/>
    <path fill="#F22243" fill-rule="evenodd" d="M44.24 52.978c-.152.14-.311.118-.513.057.178-.196.353-.078.513-.057z" clip-rule="evenodd"/>
    <path fill="#DE2F3B" fill-rule="evenodd" d="M47.025 54.906c-.007.168-.128.166-.248.165-.066-.035-.081-.096-.083-.164.11-.09.22-.09.331-.001z" clip-rule="evenodd"/>
    <path fill="#F22440" fill-rule="evenodd" d="M47.025 54.906h-.33c.009-.087.042-.153.144-.16.115-.007.177.045.186.16z" clip-rule="evenodd"/>
    <path fill="#EA293E" fill-rule="evenodd" d="M55.678 52.685c-.008-.075.049-.084.1-.09.047-.005.114-.023.126.047.007.038.025.112-.06.11-.061-.002-.132.01-.166-.067zM55.796 52.11c.012.018.05.053.043.075-.023.082-.1.069-.164.07-.089.003-.024-.056-.02-.075.015-.06.063-.079.141-.07z" clip-rule="evenodd"/>
    <path fill="#EA293E" fill-rule="evenodd" d="M55.633 52.283c-.016.067-.037.118-.1.123-.054.004-.121-.004-.1-.076.01-.033.078-.054.124-.067.015-.004.083-.048.076.02z" clip-rule="evenodd"/>
    <path fill="#F22440" fill-rule="evenodd" d="M46.611 55.072h-.248c.01-.067.018-.14.104-.15.111-.014.133.065.144.15z" clip-rule="evenodd"/>
    <path fill="#E82941" fill-rule="evenodd" d="M3.825 31.805a3.736 3.736 0 0 0-.096.879c.003-.721-.128-1.438 0-2.101.13.358.204.798.096 1.222zm-.098 1.142c-.001.516 0 .535-.431.433-.044.196-.09.393-.13.59-.117.567-.383.8-.952.828-.81.041-.81.041-.81-.756l.009-5.708c.5-.004 1.014-.131 1.477.174.398.522.374 1.15.414 1.753.04.599.02 1.201.027 1.802.063.355.117.71.042 1.062.004.032.01.063.017.095.021.094.055.197.18.185.123-.01.142-.114.15-.212.01-.11.002-.22.006-.33l.002-.108v.191zm.86-3.832c-.05-.547-.241-1.074-.71-1.438-.09 0-.159-.051-.232-.091.033-.033.037-.07.011-.11-.046-.067-.114-.051-.18-.046a35.45 35.45 0 0 0-.079-.089c-.153-.177-.368-.199-.58-.233l-.247-.02c-.129-.119-.287-.062-.431-.064-.713-.01-1.426-.01-2.139-.013v9.022c.507 0 1.014.014 1.52-.002.462-.015.93.079 1.383-.075h.001v-.001c.052-.124.14-.136.25-.077.699-.244 1.168-.714 1.323-1.442.377-1.764.267-3.545.11-5.32z" clip-rule="evenodd"/>
    <path fill="#EB283F" fill-rule="evenodd" d="M3.297 33.375l.034-1.312c.211.13.132.34.145.523.018.248-.034.503.089.743.18-1.061-.204-2.147.177-3.283.128.76.438 1.416.09 2.13-.158.325-.002 1.125.185 1.297-.293.355-.5.085-.72-.098z" clip-rule="evenodd"/>
    <path fill="#101113" fill-rule="evenodd" d="M63.032 61.578a4.913 4.913 0 0 0-.577-.013c-.221.013-.256-.094-.218-.277.144-.697.286-1.394.428-2.09.157-.042.102.129.174.172l.416 1.971c.04.188-.046.248-.223.237zm1.288.923a.642.642 0 0 1-.108-.263c-.146-.633-.35-1.258-.26-1.924.012-.09.03-.191-.038-.275-.2-.84-.41-1.679-.594-2.523-.065-.297-.26-.352-.501-.344-.22.007-.538-.115-.607.194-.118.533-.322 1.047-.37 1.596-.048.13.077.301-.092.405-.16.427-.284.863-.324 1.32-.133.089.148.274-.08.34-.313.902-.472 1.84-.715 2.795.294 0 .542-.012.788.004.194.012.244-.066.292-.247.092-.35.011-.85.306-1.016.283-.16.724-.043 1.095-.047.083-.001.167.008.248-.001.2-.023.218.118.242.257.007.116.315.054.157.29-.062.092-.096.25-.013.379.028.109-.052.24.068.33.165-.072.398.155.517-.117.3-.387.299-.77-.01-1.153z" clip-rule="evenodd"/>
    <path fill="#101113" fill-rule="evenodd" d="M63.622 61.965c-.226.066-.359.095-.503-.058.169-.061.296-.076.503.058zM62.839 59.37l-.174-.173a.383.383 0 0 1 .055-.275c.154.13.118.294.119.449zM62.592 58.712c-.015.034-.026.096-.046.099-.088.014-.105-.06-.11-.124-.008-.108.07-.13.156-.14.047.056.047.11 0 .165z" clip-rule="evenodd"/>
    <path fill="#101113" fill-rule="evenodd" d="M62.592 58.712v-.164c.075.02.212-.04.198.101-.008.084-.125.058-.198.063zM53.977 59.873l-.017-.07a.277.277 0 0 0-.127.054v-.003c.067-.078.078-.167.082-.258-.04-.24-.04-.48-.01-.72-.024-.132-.057-.26-.087-.39.032.029.078.05.146.06.072-.138-.109-.374.184-.43.42-.078.942.042 1.045.291.181.439.223.916-.078 1.292-.286.358-.729.298-1.138.174zM53.78 57.7c.12.11.044.268.015.428-.008.039-.016.08-.022.12a1.237 1.237 0 0 1 .007-.548zm2.42 3.319c-.064-.196-.15-.418-.4-.48-.329.135-.544-.205-.877-.148.365-.271.553.118.83.13-.03-.1-.105-.21.012-.299.714-.547.582-1.295.456-2.02-.082-.482-.404-.773-.886-.913-.445-.13-.892-.122-1.343-.122-1.05 0-1.05 0-.992 1.05.27.055.055.274.133.393.158.386.01.798.103 1.19-.001.373.083.764-.236 1.065v.166c.073.08.082.193.15.274.1.264.033.54.056.81.013.158-.027.335.15.438.235-.007.229-.19.237-.346.016-.308.008-.617.002-.926-.058-.458.108-.879.213-1.31-.021.297.029.581.18.847l.005-.006c1.273-.085 1.42.257 1.284 1.525-.056.522-.557.692-1.298.52l-.002-.003-.002-.007c-.13.102-.107.187.054.242.145.05.3.027.449.038.052.004.17-.057.152.048-.05.316.242.276.379.395.207.113.421-.11.627.014.269-.136.464-.354.557-.629a3.03 3.03 0 0 0 .006-1.936z" clip-rule="evenodd"/>
    <path fill="#101113" fill-rule="evenodd" d="M53.964 58.545c.005.443.01.885.013 1.328h-.163c-.053-.494.068-.986-.136-1.49-.13-.32-.024-.734.03-1.109.055.318.413.575.154.945-.083.119.021.231.102.326z" clip-rule="evenodd"/>
    <path fill="#101113" fill-rule="evenodd" d="M53.992 60.812c.007.024 0 .042-.022.053-.155.065-.227.21-.322.331h-.165c-.03-.476.07-.92.331-1.324.161.294.146.621.178.94zM53.317 62.52c-.2-.027-.163-.182-.164-.312-.003-.337-.001-.674-.001-1.011.2.027.163.182.164.311.003.338.001.675 0 1.012zM53.317 59.872c-.199-.028-.163-.182-.164-.312-.003-.337-.001-.675-.001-1.012.2.027.163.182.164.312.003.337.001.675.001 1.012zM54.753 57.462c-.133.106-.264.12-.435.013.17-.126.302-.082.435-.013zM55.636 58.216c-.008.113-.068.168-.181.16-.054-.004-.12-.022-.106-.084.007-.033.078-.051.12-.076.056-.051.111-.047.166 0z" clip-rule="evenodd"/>
    <path fill="#101113" fill-rule="evenodd" d="M55.635 58.216h-.166c-.01-.056-.077-.134.03-.153.104-.018.128.068.136.153zM104.4 63.183l.247-.001.166-.082c.073-.007.12.035.165.083h.001c-.001.225-.01.449-.325.251-.121-.076-.163.01-.234.064-.157.118.013.173.046.255-.185.026-.337.008-.315-.239-.024-.19.272-.14.249-.33zM98.52 61.196c.188-.378.03-.762-.022-1.13a6.495 6.495 0 0 1-.017-1.637c.042-.374-.124-.754.04-1.123.2-.107.338-.11.333.179-.007.354-.002.709-.002 1.063a8.882 8.882 0 0 0 .015 2.076c.051.08.121.148.15.242l.001.33a.397.397 0 0 0-.497 0zM81.502 57.661c-.123.127-.248.252-.372.378a.868.868 0 0 1-.052.052c.002.113.01.227-.113.302.05-.065.064-.135-.026-.194l-.024-.02c-.132.01-.19-.178-.268-.317l-.407-.644a.136.136 0 0 1-.073-.074c-.046 0-.092.006-.134-.017.053.002.094-.023.13-.055l.004-.024c-.049-.329-.07-.647.123-.952.343-.538 1.099-.539 1.418.01a1.29 1.29 0 0 1-.206 1.555zm.166-2.683c-.683-.275-1.375-.11-1.856.443.084.223-.063.261-.228.29-.055.008.016 0-.036.017-.084.031-.067.105-.072.17.03.167-.082.283-.154.414-.12.303-.091.603-.027.92.116.57.534.974.763 1.48-.074.252.148.274.22.177.174-.235.468-.259.65-.454a.424.424 0 0 0 .035-.04c-.003.232.215.247.344.35.04.012.076.005.11-.02.765-.44 1.278-1.05 1.332-1.973.044-.763-.403-1.5-1.081-1.774z" clip-rule="evenodd"/>
    <path fill="#101113" fill-rule="evenodd" d="M80.647 57.863c.14.114.226.381.483.176.064.17.265.403-.16.343-.12-.165-.359-.257-.323-.52zM82.382 57.235c-.203.355-.203.355-.56.23l.56-.23zM80.167 57.048c.068.038.064.107.073.17-.18-.012-.369.048-.59-.063.179-.154.362-.069.517-.107zM82.116 62.02c.135-.187.006-.336-.07-.493.176-.012.372 0 .372.215.001.135-.072.328-.302.278zM83.618 60.22c-.023.075-.045.15-.07.226-.026.084.012.207-.12.231-.032.006-.09-.017-.104-.043-.062-.113-.023-.206.072-.288.06-.051.107-.116.16-.175l.062.048zM100.756 57.221c.229-.005.46-.02.415.329-.257 2.006-.143 4.022-.17 6.035-.001.05-.008.11-.155.133-.026-2.174.037-4.337-.092-6.496h.002zM87.261 63.183c-.046.098.122.378-.222.23-.11-.046-.27.143-.439.1.049-.11-.264-.22 0-.33h.662zM86.434 62.19v.331c-.344-.259-.124-.554-.084-.837.13.159.062.337.084.506zM94.22 63.774c-.252-.223-.252-.223-.457-.032-.056-.26-.134-.483.19-.613.093-.037.142-.192.035-.234-.375-.149-.183-.434-.184-.667-.005-1.238-.002-2.476-.002-3.715 0-.33.003-.66 0-.99-.002-.167.016-.298.236-.3.2-.001.268.086.261.274-.047 1.29.011 2.579-.048 3.871-.035.77-.076 1.55-.032 2.406z" clip-rule="evenodd"/>
    <path fill="#E62A3C" fill-rule="evenodd" d="M64.918 51.05c.133-.171.292-.08.403-.138.053-.182-.216-.095-.192-.282.346-.052.696-.033 1.096-.006-.134.212-.328.085-.444.207.074.194.314.02.43.219h-1.293zM63.5 51.512c-.208.125-.433.12-.662.082.193-.25.424-.202.663-.082zM62.838 51.595c-.12.309-.388.106-.58.166.121-.31.388-.106.58-.166z" clip-rule="evenodd"/>
    <path fill="#101113" fill-rule="evenodd" d="M75.013 63.75c-.244-.023-.166-.213-.167-.345-.007-.736-.003-1.472-.003-2.208-.004-.287.075-.548.255-.893.118.363.056.632.076.893-.111.128-.08.285-.082.433-.003.562.001 1.124-.002 1.686-.001.148.03.305-.077.435zM65.901 62.52c0-1.63-.002-3.26.006-4.89 0-.138-.11-.351.159-.392 0 1.664.004 3.328-.007 4.992-.001.09.174.351-.158.29zM79.32 61.772c.203.442.426.868.904 1.078-.258.001-.515.057-.673-.27-.055-.114-.42-.485-.39-.633.017-.087.082-.139.16-.175zM79.465 60.368c-.164.37-.263.752-.236 1.16.013-.358-.407-.627-.132-1.076.16-.26.232-.124.368-.084zM53.648 61.196c-.006-.22-.019-.447.322-.33l.006 1.988c-.21-.19-.343-.409-.33-.708.013-.316.002-.633.002-.95zM98.852 60.7c-.146-.013-.17-.113-.164-.232.03-.608.062-1.215.098-1.822.001-.034.043-.066.066-.098v1.324a.279.279 0 0 1 .082.153c.003.21-.014.421-.044.63a3.82 3.82 0 0 1-.038.045z" clip-rule="evenodd"/>
    <path fill="#101113" fill-rule="evenodd" d="M99.018 60.865c-.108-.003-.163-.058-.166-.165.078-.156-.014-.33.057-.487.033-.037.07-.04.109-.01.16.22.32.442 0 .662z" clip-rule="evenodd"/>
    <path fill="#101113" fill-rule="evenodd" d="M99.018 60.203h-.083c-.058-.04-.026-.124-.083-.165v-.166c.336-.03.176.188.166.331zM68.385 62.603c-.174-.078-.166-.232-.166-.386 0-1.556 0-3.111.003-4.667 0-.122-.062-.296.161-.31l.002 5.363zM88.38 57.61c-.083.144-.043.365-.258.394-.045.006-.164-.125-.152-.163.06-.19.272-.14.41-.23zM88.8 58.352c-.035.062-.044.173-.148.148-.047-.011-.094-.093-.11-.152-.03-.119.065-.127.146-.124.073.002.132.03.111.128zM87.407 63.025c.112-.004.178.045.177.162 0 .053-.021.131-.079.11a.455.455 0 0 1-.227-.159c-.03-.048.054-.106.129-.113zM57.956 63.75h-.17c-.135-1.344-.162-2.69-.178-4.04-.01-.835.3-1.637.18-2.473h.167c.102.117.08.26.08.394.002 1.909.002 3.817 0 5.726 0 .134.027.278-.08.392z" clip-rule="evenodd"/>
    <path fill="#101113" fill-rule="evenodd" d="M57.955 63.75v-6.512c.216.013.16.18.162.302.006.336.002.672.002 1.008v5.049c.049.052.05.103-.001.153h-.163z" clip-rule="evenodd"/>
    <path fill="#EE263C" fill-rule="evenodd" d="M70.207 52.092c.237.113.434.238.739.056.176-.106.478.06.655.264-.328.004-.656-.004-.982.014-.253.014-.389-.083-.412-.334z" clip-rule="evenodd"/>
    <path fill="#EE273C" fill-rule="evenodd" d="M70.207 51.76c.098.006.205-.021.292.063-.05.156-.311.06-.292.269h-.45c.008-.187.125-.246.201-.332.083-.067.166-.067.249 0z" clip-rule="evenodd"/>
    <path fill="#DB313A" fill-rule="evenodd" d="M70.207 51.76h-.249v-.165h.249v.165z" clip-rule="evenodd"/>
    <path fill="#101113" fill-rule="evenodd" d="M65.574 57.222c.143.02.162.121.162.242-.001 1.624-.001 3.249-.004 4.873 0 .05-.001.112-.164.14v-5.253l.006-.002zM75.013 63.75c-.002-.73-.006-1.46-.002-2.191 0-.138-.068-.322.163-.362 0 .734.004 1.468-.004 2.202 0 .13.083.32-.157.352z" clip-rule="evenodd"/>
    <path fill="#E62A3C" fill-rule="evenodd" d="M38.414 11.533c.498-.08.995.205 1.492 0-.016.088-.054.158-.154.159-.395.002-.79.002-1.184 0-.1 0-.138-.072-.154-.159zM39.988 11.532c.04-.107-.204-.285.083-.33-.012.114.038.243-.083.33z" clip-rule="evenodd"/>
    <path fill="#101113" fill-rule="evenodd" d="M58.285 60.864c.015-.13-.056-.303.165-.33h1.098l.015.121c-.415.115-.898-.065-1.278.21zM80.722 59.03c-.141.004-.226-.054-.228-.16-.005-.234.25-.147.362-.257.079-.077.103.07.111.143.023.204-.209.156-.245.274zM75.845 59.893c-.204-.095-.198-.19-.108-.315.151.072.075.199.108.315zM58.117 63.75l.002-.153c.242-.038.174-.25.194-.388.015-.108.006-.185.136-.191.185-.004.339.112.563.022.332-.133.692.023.998.177.195.099.07.345.081.525l-1.974.008zM104.978 63.183c-.068-.002-.129-.016-.165-.083.02-.089-.122-.28.113-.236.241.046.011.215.052.319zM105.336 62.769c-.034.018-.067.05-.101.051-.047.002-.075-.044-.047-.08.018-.026.069-.032.107-.037.009-.001.023.037.041.066z" clip-rule="evenodd"/>
    <path fill="#E62A3C" fill-rule="evenodd" d="M39.74 53.748c-.027.223-.202.149-.332.165l-.063-.151.395-.014z" clip-rule="evenodd"/>
    <path fill="#F9A1A0" fill-rule="evenodd" d="M37.981 5.647c-.068-.05-.144-.16-.1-.194.107-.085.157.036.208.114l-.108.08z" clip-rule="evenodd"/>
    <path fill="#101113" fill-rule="evenodd" d="M98.852 60.038c.067.036.081.097.083.165-.027.166.067.352-.083.497-.107-.22.018-.441 0-.662zM82.185 61.946a.55.55 0 0 1-.07.074c-.07.017-.085.07-.081.134-.282.633-1.099.949-1.808.697h-.002a1.15 1.15 0 0 1-.367-.167c-.347-.159-.559-.473-.523-.811a1.174 1.174 0 0 1-.014-.101l-.091-.245c-.017-.185-.054-.374-.052-.556-.125-.325-.077-.445.234-.557a.893.893 0 0 1 .054-.046c.023-.008.033-.024.03-.048l.504-.605a.162.162 0 0 1 .143-.089c.18-.11.35-.315.573-.07.39.694.877 1.322 1.332 1.971a.677.677 0 0 1 .13.114c.06.023.108.064.108.17 0 .096-.047.12-.1.135zm-1.22 1.62a.747.747 0 0 0-.03-.045.292.292 0 0 0 .037-.004l.004.003a.307.307 0 0 1-.01.047zm-1.911-.432a.057.057 0 0 1 .008-.048c-.002.016-.004.031-.008.048zm1.889-4.272c-.073-.028-.177.03-.243-.035.107-.096.18-.052.243.035zm3.329 3.98c-.264-.255-.494-.543-.739-.817-.193-.166-.416-.326-.102-.582.293-.405.279-.924.496-1.36.078-.156.029-.258-.187-.304-.616-.132-.613-.147-.786.484-.018.066-.032.135-.063.194-.048.091-.031.236-.175.252-.14.015-.171-.12-.232-.204-.31-.431-.616-.866-.923-1.3-.03-.166-.261-.27-.145-.48l-.115-.012c0-.22-.3-.142-.332-.33-.237.135-.585.059-.711.429-.045.132-.177.034-.2-.1-.284.219-.628.36-.854.654l-.067.069c-.033.23-.215.33-.387.438-.024.016-.033.038-.025.067-.074.075-.144.153-.153.265-.078.058-.084.145-.094.231-.266.722-.228 1.42.169 2.089h-.002c.077.24.227.43.404.602.267.3.585.51.994.559.553.152 1.093.169 1.597-.162v.002c.415-.072.66-.37.902-.676.02-.083.018-.136.004-.168.06.016.122.037.177.012l.033.007.033-.006c.218-.006.267.167.335.319l.003.001c.208.066.208.066.153.184.03.044.057.093.093.132.516.554.508.548.937-.05.132-.183.123-.284-.038-.44z" clip-rule="evenodd"/>
</svg>
