<svg width="20" height="20" viewBox="0 0 20 20" fill="none" xmlns="http://www.w3.org/2000/svg">
<path fill-rule="evenodd" clip-rule="evenodd" d="M17.2898 2.61528C15.5624 0.928679 13.2657 -9.43396e-05 10.823 0C10.4227 0 10.0984 0.316792 10.0984 0.707547C10.0984 1.0983 10.4228 1.41509 10.823 1.41509C12.8787 1.415 14.8113 2.1966 16.265 3.61594C17.7187 5.03528 18.5192 6.92245 18.5191 8.92972C18.5191 9.32047 18.8434 9.63726 19.2437 9.63726C19.6439 9.63726 19.9683 9.32047 19.9683 8.92981C19.9684 6.54443 19.0172 4.30189 17.2898 2.61528Z" fill="#E62A3C"/>
<path fill-rule="evenodd" clip-rule="evenodd" d="M14.3089 8.93001C14.3089 9.32076 14.6334 9.63755 15.0337 9.63746C15.4338 9.63746 15.7582 9.32067 15.7582 8.92991C15.758 6.27331 13.5441 4.11171 10.8231 4.11133C10.823 4.11133 10.8231 4.11133 10.823 4.11133C10.4228 4.11133 10.0985 4.42803 10.0984 4.81878C10.0984 5.20954 10.4227 5.52633 10.8229 5.52642C12.745 5.52671 14.3087 7.0535 14.3089 8.93001Z" fill="#E62A3C"/>
<path fill-rule="evenodd" clip-rule="evenodd" d="M12.7054 12.5374C11.6009 12.4815 11.0382 13.2836 10.7683 13.6689C10.5423 13.9914 10.627 14.4317 10.9573 14.6524C11.2876 14.8731 11.7386 14.7904 11.9646 14.4679C12.2834 14.0127 12.4278 13.9411 12.6238 13.9501C13.2509 14.0221 15.721 15.7895 15.9683 16.3421C16.0303 16.5048 16.028 16.6644 15.9615 16.8584C15.7021 17.6099 15.2729 18.1381 14.7198 18.3856C14.1944 18.6208 13.5503 18.5995 12.8574 18.3242C10.2703 17.2946 8.00996 15.8577 6.13943 14.0533C6.13866 14.0526 6.13788 14.0519 6.13721 14.0512C4.29315 12.2265 2.82426 10.0224 1.77151 7.50013C1.48948 6.82305 1.46764 6.194 1.70851 5.68107C1.96204 5.14107 2.50291 4.72192 3.27189 4.469C3.47131 4.40371 3.63441 4.40164 3.79953 4.46164C4.36755 4.704 6.1775 7.11569 6.25054 7.72117C6.26098 7.91966 6.18706 8.0606 5.72127 8.37136C5.39083 8.59173 5.3059 9.03202 5.5317 9.35466C5.7574 9.6773 6.20822 9.76013 6.53875 9.53975C6.93354 9.27654 7.75479 8.72862 7.69779 7.64645C7.63499 6.51607 5.383 3.52258 4.30697 3.13626C3.82842 2.96211 3.32503 2.95909 2.81025 3.12777C1.65199 3.50862 0.815468 4.18768 0.39112 5.09145C-0.0204737 5.96824 -0.00743026 6.98551 0.429285 8.03381C1.55595 10.7331 3.13228 13.0948 5.11441 15.0538C5.11924 15.0586 5.12416 15.0633 5.12919 15.068C7.13402 16.9998 9.55006 18.5361 12.3108 19.6348C12.8637 19.8544 13.4081 19.9643 13.9288 19.9643C14.419 19.9643 14.8884 19.8669 15.3238 19.672C16.2495 19.2578 16.9448 18.4411 17.3352 17.3094C17.5075 16.8077 17.5047 16.3164 17.3277 15.8513C16.9307 14.7978 13.8649 12.5989 12.7054 12.5374Z" fill="#E62A3C"/>
</svg>
